<svg xmlns="http://www.w3.org/2000/svg" viewBox="0 0 634 434.74"><defs><style>.cls-1{fill-rule:evenodd;}</style></defs><title>Ресурс 1</title><g id="Слой_2" data-name="Слой 2"><g id="Слой_1-2" data-name="Слой 1"><g id="Слой_1-3" data-name="Слой_1"><path class="cls-1" d="M0,72.74c0,4.17,3.47,3,12,3,9.27,0,1-6,11.81-10.19,12.89-5,37.37-11.87,50.79-15.21,18.17-4.53,55.89-14.6,73.4-14.6,4.89,9.25,15.72,48.61,26.65,71.34,8.51,17.7,30.67,63,42.35,80.66,9.9,15,24.83,37.25,37.23,49.77,2.22,2.24,3.9,3.7,6,6.05l2.27,2.73.46.54C276,262.33,312,290.1,327.4,300.34l22.78,14.22c52.73,32.05,134.89,52.82,195.23,64.76,12.83,2.54,29.48,6.42,43.59,6.42-4.65,6.94-15.75,5.2-30.58,9.42-26.55,7.56-50.89,13.78-75.43,25.56-7.54,3.62-7,3.32-7,14,16.44-3.83,21.47-7.85,36.42-13.58,23.12-8.88,55.1-15.44,79.57-21.43,6.78-1.66,13.32-2.79,20.41-4.59,3.93-1,7.08-1.58,10.69-2.31,4-.8,6.76-2,10.91-2.09-.34-15.38-8.2-9.08-18.5-13.5-7.3-3.13-51.14-43.38-61.2-51.8-7.74-6.47-35.35-33.08-41-40-5.16-6.35-8.21-13.69-19.31-13.69,2.77,33.24,93,86.63,97,104-26.13-6.09-52.78-10.57-79.4-16.6-57.86-13.12-91.67-24-143.93-50.07L337,291.75c-2.57-1.72-4.37-2.88-7.32-4.69l-47.42-37.57c-11.05-11.15-19.32-19.53-29.12-31.88l-24.94-35.07c-10.67-16.95-17-29.36-25.86-47.13l-15.75-33.25C179.19,84.27,161,49.92,161,30.74c22.85,0,25.25-2,45.17-4.84,17.27-2.42,66.5-9.29,78.84-9.16,16.77.19,24-1.66,36-8C318.93,1,313-.78,305.62.28c-6,.85-10.28.14-23.05,2L216.29,11C160.11,19.28,58.34,35.15,11.67,58.4,4.89,61.78,0,62.87,0,72.74Z"/></g></g></g></svg>