<svg xmlns="http://www.w3.org/2000/svg" viewBox="0 0 478.46 190.54"><title>Ресурс 1</title><g id="Слой_2" data-name="Слой 2"><g id="Слой_1-2" data-name="Слой 1"><path d="M66.1,138.71a4.38,4.38,0,0,0-1.53.3c.05,2.32,1.44,3.12,2.67,4.37A69.31,69.31,0,0,0,75,149.72c4,3,8.25,5.82,12.15,9a8.76,8.76,0,0,1,3.15,3.88c1.27,2.46,2.69,4.65,5.56,5.21,2.6.49,1.59-1.05,2.19-4.22.57-3-4.87-4.93-7.54-9.76a42.82,42.82,0,0,1-5.16-16l-1.17-6.17c-6.31.14-1.91,10-1.84,13.16C76,140.57,63.44,118.35,59,110.34c-1.44-2.58-2.75-4.86-4.08-7.54a261.09,261.09,0,0,1-11-23.89c-2.24-5.88-3.72-11.63-5.46-17.8-.89-3.14-1.6-6-2.52-9.11-1.84-6.33-2.16-13.41-3.45-19.81S29.38,18.45,29.38,12c.82.55,7.24,8.81,8.39,10.28,1.39,1.78,2.91,3.12,4.28,4.89.77,1,1.46,1.44,2.23,2.37L70.45,54.79c8.25,7.35,17.13,14.22,26,20.84l10.73,7.94c1.88,1.28,3.42,2.53,5.32,3.85L123.62,95c7.3,4.88,35.41,20.53,44.79,25.29l9.17,4.9c18.83,10.14,33,14.73,51.82,23.16,2.21,1,4.26,1.8,6.48,2.69a211.13,211.13,0,0,0,21,7.13c9.83,2.81,19.65,5.06,30,7.34a388.87,388.87,0,0,0,39.6,6.91c6.7.75,14.72,1.64,21.41,1.84a126.85,126.85,0,0,1,13.39.69c9.57,1.28,21.58,1.21,30.25,2.49,1.42.21,2.82.13,4.25.35a109.2,109.2,0,0,0,17,1.65c1.9,0,2.37.33,4.27.33l9,.51a111.63,111.63,0,0,0,12.75,1.33,81,81,0,0,1,9.11.38,64.83,64.83,0,0,0,8.65.83l-.39.23c-2.49,1.13-11.58,2.75-14.87,3.78-2.44.77-2.77.63-3.4,3.34,3.65.85,7,.3,10.71-.61,6-1.47,15.08-4.42,20.57-5.13,2-.26,4.36.09,6.36-.07,1.66-.14,3.27-1.85,2.86-3.18-.52-1.68-6.54-3-8.9-3.95-4.58-1.82-8.68-4.24-13.2-6.08s-9.15-4.85-14.43-4.85c-1.44,0-2.36,3.31,2.64,5,4.66,1.6,14.11,3.44,16.64,7.23-5.21,0-11-1.09-16.22-1.22l-7-.31c-4.39,0-1,.87-7.71,0-2.72-.33-5.75-.54-8.29-.89-1.48-.2-3,0-4.49-.1-7-.58-14.12-.57-21.08-1.56-2.49-.36-5.51-.86-8.05-1.13-1.49-.16-3,.08-4.5-.09a31.75,31.75,0,0,0-4.33-.26c-4.72,0-24.31-2.84-33.35-3.07a271.53,271.53,0,0,1-41-4.56c-5-1-10-2-14.91-3.14s-10.12-2.1-15.06-3.3-9.67-2.44-14.38-3.68l-14.18-4.17c-2.35-.69-4.33-1.54-6.59-2.29-4.36-1.45-8.88-3.47-13.15-5.21-1.08-.44-2-1-3.11-1.48l-40.49-18.57L144.94,102.7A243.21,243.21,0,0,1,114,83.45L77.76,56.05,75.23,54,70.3,49.74c-.43-.42-.63-.68-1.07-1.07l-6-5.65A25.1,25.1,0,0,1,61,41a21.79,21.79,0,0,0-2.35-2.25c-1.11-.86-1.43-1.36-2.41-2.18L49,30c-3-3-5.43-6.57-8.42-9.63l-8.36-10c-.85-1.18-3.17-4.47-3.5-5.69H46.51c1.52-.08,2.34-.32,4.28-.31l22.65-.3c1.57,0,8.07.18,9.07-.11s1.85-2,1.35-2.73C82.36-.9,30.59.38,30.28.39L22.56.92c-4.51.61-10,.74-15,1.48L0,3.46V7.74L22.34,5c3.24,0,3,5.28,3.46,8.47,1.53,11.25,2.56,20.5,4.62,32.09,5.67,31.78,18.62,59.68,36.1,86a137.89,137.89,0,0,0,10.59,13.89c-.65.91-2.26-.9-2.88-1.4-1-.81-1.5-1.28-2.54-2.06S67.65,138.71,66.1,138.71Z"/></g></g></svg>