<svg xmlns="http://www.w3.org/2000/svg" viewBox="0 0 472 443.68"><defs><style>.cls-1{fill-rule:evenodd;}</style></defs><title>Ресурс 1</title><g id="Слой_2" data-name="Слой 2"><g id="Слой_1-2" data-name="Слой 1"><g id="Слой_1-3" data-name="Слой_1"><path class="cls-1" d="M0,17.17c1,1.46,6.18,6,8,6,21.19,0,43.22-1.3,63.05-2.94,5.08-.42,10.82.31,15.9-.11L134,17.17,117.66,52.83C99.86,92.75,86,140.31,86,187.17c0,21.36,5.57,41.15,10.87,57.13,9.43,28.38,20.32,45.35,35.13,67.87,7.43,11.3,16.09,20.15,24.81,30.2l25.9,22.1c34.93,26.32,96.4,46.08,142.29,45.7,6.85-.05,9.14,1.06,16,1,23-.1,46,0,69,0-2.92,4.37-6.27,5.19-11.7,7.3-10.69,4.17-35.17,10.08-36.3,23.7,6.45,1.51,7.08,2.61,14.62-.38,4.76-1.88,9-4.61,13.39-6.6,13.21-5.93,44.87-15.77,59.87-20.13,16.19-4.71,22.12-4.63,22.12-17.89-23.51,0-22.74,9.75-67.06-16.94-11.71-7.05-32.1-22.06-45.94-22.06-2.21,9.5-1.1,11.06,23.31,24.7,4.94,2.76,8.92,5.45,14,8,6.86,3.44,9.54,2.1,13.69,8.3-103.92,0-171.53-5.64-232.86-55.14-9-7.28-13.37-12.73-20.88-21.11-2.67-3-4.53-5.77-7-9-2.73-3.63-4.57-6.14-7.09-9.91C120.11,270.9,100,223.27,100,181.17c0-29.89,8.56-60.89,16.64-88.36C119.71,82.37,140.24,30,147,17.17c17.48,0,31.46,1,49,1l70,0c6.43,0,8.64-.89,14-1.05,9.13-.27,23,2.3,23-7,0-13-36.18-5.91-46.58-7.41-30.58-4.43-66.66-3-96.42.41-22.59,2.56-33,2.12-56,2-11.48-.07-40.24,3.65-54,4-4.7.12-7.41.76-13,1-3.42.17-9.59.72-13.74,1.26C12.72,12.83,5.13,9.52,0,17.17Z"/></g></g></g></svg>