<svg xmlns="http://www.w3.org/2000/svg" width="54" height="75" viewBox="0 0 54 75">
    <path fill="#FFF" fill-rule="nonzero" d="M28.954 72.216c-9.156 1.092-18.276 2.829-27.592 1.876-.964-.08-1.84-1.392-1.014-2.175 6.034-6.653 11.908-13.364 18.775-19.082 1.152-.935 2.892.24 2.37 1.675-.987 2.712-1.814 5.48-2.373 8.257 15.994-7.723 34.954-15.902 31.031-37.376-1.78-9.498-7.389-18.402-16.123-22.935-2.317-1.805-2.66-3.17 1.908-1.6 2.05.58 12.875 6.099 16.08 19.163 3.208 10.288 2.444 20.575-4.873 29.018-6.541 7.552-16.54 11.95-25.668 15.941a39.896 39.896 0 0 1 7.93 4.512c1.16.783.949 2.603-.45 2.726zm-11.742-6.441c-.522-.551-.398-1.138.044-1.61l.058-.159c-.267-1.994-.107-3.922.212-5.792-4.568 4.116-8.774 8.725-12.922 13.175 6.647.343 13.172-.713 19.69-1.502-2.544-1.197-5.038-2.285-7.082-4.112z"/>
</svg>
