<?xml version="1.0" encoding="UTF-8"?>
<svg width="530px" height="533px" viewBox="0 0 530 533" version="1.1" xmlns="http://www.w3.org/2000/svg" xmlns:xlink="http://www.w3.org/1999/xlink">
    <!-- Generator: Sketch 48.2 (47327) - http://www.bohemiancoding.com/sketch -->
    <title>@1xCircle</title>
    <desc>Created with Sketch.</desc>
    <defs>
        <linearGradient x1="50%" y1="0%" x2="50%" y2="100%" id="linearGradient-1">
            <stop stop-color="#FCFCFC" offset="0%"></stop>
            <stop stop-color="#F8F8F8" offset="100%"></stop>
        </linearGradient>
        <linearGradient x1="50%" y1="0.87890625%" x2="50%" y2="98.4992825%" id="linearGradient-2">
            <stop stop-color="#E9E9E9" offset="0%"></stop>
            <stop stop-color="#DCDCDC" offset="100%"></stop>
        </linearGradient>
        <circle id="path-3" cx="265" cy="266" r="250"></circle>
        <linearGradient x1="50%" y1="0%" x2="50%" y2="100%" id="linearGradient-4">
            <stop stop-color="#E9E9E9" offset="0.87890625%"></stop>
            <stop stop-color="#DCDCDC" offset="98.4992825%"></stop>
        </linearGradient>
        <linearGradient x1="2.91799583%" y1="36.8460699%" x2="98.0357291%" y2="72.0965621%" id="linearGradient-5">
            <stop stop-color="#FF5F6D" offset="0%"></stop>
            <stop stop-color="#FFC371" offset="100%"></stop>
        </linearGradient>
        <path d="M184.536887,520.415278 C183.597163,520.119167 182.672121,519.80825 181.74708,519.497333 L186.357603,505.446861 C187.238595,505.742972 188.119587,506.024278 189.000579,506.305583 L184.536887,520.415278 Z M110.651047,482.972028 C109.858154,482.394611 109.065262,481.802389 108.272369,481.224972 L116.964821,469.3065 C117.713664,469.854306 118.462507,470.402111 119.21135,470.949917 L110.651047,482.972028 Z M51.8595317,424.342028 C51.2868871,423.542528 50.6995592,422.743028 50.1269146,421.943528 L62.0496694,413.311889 C62.5929477,414.066972 63.1362259,414.822056 63.6795041,415.577139 L51.8595317,424.342028 Z M43.9599725,412.882528 C43.4166942,412.053417 42.8880992,411.224306 42.3595041,410.395194 L54.7080716,402.415 C55.2073003,403.199694 55.7065289,403.969583 56.2204408,404.754278 L43.9599725,412.882528 Z M36.6624242,401.023278 C36.1631956,400.164556 35.6786501,399.320639 35.1941047,398.461917 L47.9538017,391.133167 C48.4089807,391.947472 48.8641598,392.761778 49.334022,393.561278 L36.6624242,401.023278 Z M29.9962534,388.808694 C29.5410744,387.935167 29.1005785,387.061639 28.6600826,386.173306 L41.7721763,379.525611 C42.1833058,380.354722 42.6091185,381.183833 43.0349311,382.012944 L29.9962534,388.808694 Z M23.9614601,376.238778 C23.5650138,375.335639 23.1685675,374.447306 22.7721212,373.544167 L36.2219284,367.592333 C36.5890083,368.451056 36.9560882,369.309778 37.3378512,370.153694 L23.9614601,376.238778 Z M18.6020937,363.387556 C18.249697,362.469611 17.8973003,361.536861 17.5449036,360.618917 L31.2883747,355.392556 C31.611405,356.266083 31.9344353,357.124806 32.2721488,357.998333 L18.6020937,363.387556 Z M13.9034711,350.255028 C13.595124,349.322278 13.2867769,348.389528 12.9931129,347.441972 L26.9861983,342.941083 C27.2651791,343.829417 27.5441598,344.71775 27.8378237,345.606083 L13.9034711,350.255028 Z M9.89495868,336.900417 C9.63066116,335.952861 9.39573003,334.9905 9.1461157,334.042944 L23.3447658,330.297139 C23.579697,331.200278 23.8146281,332.088611 24.0642424,332.99175 L9.89495868,336.900417 Z M6.59123967,323.353333 C6.38567493,322.390972 6.18011019,321.428611 5.98922865,320.46625 L20.3640771,317.460722 C20.5549587,318.378667 20.7458402,319.281806 20.9367218,320.19975 L6.59123967,323.353333 Z M4.00699725,309.658194 C3.84548209,308.681028 3.68396694,307.703861 3.53713499,306.726694 L18.0588154,304.491056 C18.2056474,305.409 18.3377961,306.34175 18.4846281,307.259694 L4.00699725,309.658194 Z M2.11286501,295.829806 C2.01008264,294.852639 1.90730028,293.860667 1.80451791,292.8835 L16.4289807,291.41775 C16.5170799,292.3505 16.6051791,293.268444 16.7079614,294.201194 L2.11286501,295.829806 Z M0.952892562,281.927389 C0.89415978,280.935417 0.850110193,279.95825 0.806060606,278.966278 L15.474573,278.270417 C15.5186226,279.203167 15.5626722,280.135917 15.621405,281.068667 L0.952892562,281.927389 Z M0.512396694,267.980556 L0.512396694,265.019444 L15.1955923,265.108278 L15.1955923,267.891722 L0.512396694,267.980556 Z M0.806060606,254.033722 C0.850110193,253.04175 0.89415978,252.064583 0.952892562,251.072611 L15.621405,251.931333 C15.5626722,252.864083 15.5186226,253.796833 15.474573,254.729583 L0.806060606,254.033722 Z M1.80451791,240.1165 C1.90730028,239.139333 2.01008264,238.147361 2.11286501,237.170194 L16.7079614,238.798806 C16.6051791,239.731556 16.5170799,240.6495 16.4289807,241.58225 L1.80451791,240.1165 Z M3.53713499,226.273306 C3.68396694,225.296139 3.84548209,224.318972 4.00699725,223.341806 L18.4846281,225.740306 C18.3377961,226.65825 18.2056474,227.591 18.0588154,228.508944 L3.53713499,226.273306 Z M5.98922865,212.53375 C6.18011019,211.571389 6.38567493,210.609028 6.59123967,209.646667 L20.9367218,212.80025 C20.7458402,213.718194 20.5549587,214.621333 20.3640771,215.539278 L5.98922865,212.53375 Z M9.1461157,198.957056 C9.39573003,198.0095 9.63066116,197.047139 9.89495868,196.099583 L24.0642424,200.00825 C23.8146281,200.911389 23.579697,201.799722 23.3447658,202.702861 L9.1461157,198.957056 Z M12.9931129,185.558028 C13.2867769,184.610472 13.595124,183.677722 13.9034711,182.744972 L27.8378237,187.393917 C27.5441598,188.28225 27.2651791,189.170583 26.9861983,190.058917 L12.9931129,185.558028 Z M17.5449036,172.381083 C17.8973003,171.463139 18.249697,170.530389 18.6020937,169.612444 L32.2721488,175.001667 C31.9344353,175.875194 31.611405,176.733917 31.2883747,177.607444 L17.5449036,172.381083 Z M22.7721212,159.455833 C23.1685675,158.552694 23.5650138,157.664361 23.9614601,156.761222 L37.3378512,162.846306 C36.9560882,163.690222 36.5890083,164.548944 36.2219284,165.407667 L22.7721212,159.455833 Z M28.6600826,146.826694 C29.1005785,145.938361 29.5410744,145.064833 29.9962534,144.191306 L43.0349311,150.987056 C42.6091185,151.816167 42.1833058,152.645278 41.7721763,153.474389 L28.6600826,146.826694 Z M35.1941047,134.538083 C35.6786501,133.679361 36.1631956,132.835444 36.6624242,131.976722 L49.334022,139.438722 C48.8641598,140.238222 48.4089807,141.052528 47.9538017,141.866833 L35.1941047,134.538083 Z M42.3595041,122.604806 C42.8880992,121.775694 43.4166942,120.946583 43.9599725,120.117472 L56.2204408,128.245722 C55.7065289,129.030417 55.2073003,129.800306 54.7080716,130.585 L42.3595041,122.604806 Z M50.1269146,111.056472 C50.6995592,110.256972 51.2868871,109.457472 51.8595317,108.657972 L63.6795041,117.422861 C63.1362259,118.177944 62.5929477,118.933028 62.0496694,119.688111 L50.1269146,111.056472 Z M58.4963361,99.9375 C59.1130303,99.1676111 59.7297245,98.4125278 60.3464187,97.6426389 L71.6965289,107.014556 C71.1092011,107.740028 70.5218733,108.4655 69.9492287,109.190972 L58.4963361,99.9375 Z M67.423719,89.2775 C68.0697796,88.5372222 68.7305234,87.81175 69.3912672,87.0862778 L80.2421488,97.0504167 C79.6254545,97.7462778 79.0087603,98.4273333 78.3920661,99.1231944 L67.423719,89.2775 Z M76.8943802,79.1060833 C77.5844904,78.4102222 78.2746006,77.7143611 78.9647107,77.0185 L89.2869972,87.54525 C88.6262534,88.1966944 87.9801928,88.8481389 87.3341322,89.5143889 L76.8943802,79.1060833 Z M86.8789532,69.4528611 C87.5984298,68.7866111 88.3179063,68.1203611 89.0520661,67.4689167 L98.8163912,78.5286667 C98.126281,79.1505 97.450854,79.7723333 96.7607438,80.3941667 L86.8789532,69.4528611 Z M97.3480716,60.3326389 C98.1115978,59.7108056 98.8604408,59.0889722 99.6239669,58.4671389 L108.800964,70.0154722 C108.081488,70.5928889 107.362011,71.1851111 106.642534,71.7773333 L97.3480716,60.3326389 Z M108.272369,51.7750278 C109.065262,51.1976111 109.858154,50.6053889 110.651047,50.0279722 L119.21135,62.0500833 C118.462507,62.5978889 117.713664,63.1456944 116.964821,63.6935 L108.272369,51.7750278 Z M119.637163,43.8096389 C120.459421,43.2618333 121.28168,42.7288333 122.103939,42.1958333 L130.018182,54.6473056 C129.239972,55.1506944 128.476446,55.6540833 127.698237,56.1722778 L119.637163,43.8096389 Z M131.398402,36.4512778 C132.250028,35.9478889 133.08697,35.4593056 133.938595,34.9707222 L141.206777,47.83675 C140.399201,48.2957222 139.591625,48.7546944 138.798733,49.2284722 L131.398402,36.4512778 Z M143.512039,29.7295556 C144.378347,29.2705833 145.244656,28.8264167 146.125647,28.38225 L152.718402,41.6036111 C151.896143,42.0181667 151.073884,42.4475278 150.251625,42.8768889 L143.512039,29.7295556 Z M155.978072,23.6444722 C156.873747,23.2447222 157.754738,22.8449722 158.650413,22.4452222 L164.553058,36.0071111 C163.701433,36.37725 162.849807,36.7473889 162.012865,37.1323333 L155.978072,23.6444722 Z M168.723085,18.2404444 C169.633444,17.8851111 170.558485,17.5297778 171.468843,17.1744444 L176.652011,31.0324444 C175.785702,31.3581667 174.934077,31.6838889 174.067769,32.0244167 L168.723085,18.2404444 Z M181.74708,13.5026667 C182.672121,13.19175 183.597163,12.8808333 184.536887,12.5847222 L189.000579,26.6944167 C188.119587,26.9757222 187.238595,27.2570278 186.357603,27.5531389 L181.74708,13.5026667 Z M194.991322,9.46075 C195.931047,9.19425 196.885455,8.95736111 197.825179,8.70566667 L201.540028,23.0226389 C200.644353,23.2595278 199.763361,23.4964167 198.867686,23.7481111 L194.991322,9.46075 Z M208.426446,6.1295 C209.380854,5.92222222 210.335262,5.71494444 211.289669,5.52247222 L214.270358,20.0171111 C213.36,20.2095833 212.464325,20.4020556 211.553967,20.5945278 L208.426446,6.1295 Z M222.008402,3.52372222 C222.977493,3.36086111 223.946584,3.198 224.915675,3.04994444 L227.132837,17.6926389 C226.222479,17.8406944 225.297438,17.9739444 224.38708,18.122 L222.008402,3.52372222 Z M235.722507,1.61380556 C236.691598,1.51016667 237.675372,1.40652778 238.644463,1.30288889 L240.098099,16.0492222 C239.173058,16.1380556 238.2627,16.2268889 237.337658,16.3305278 L235.722507,1.61380556 Z M249.510028,0.444166667 C250.493802,0.384944444 251.462893,0.340527778 252.446667,0.296111111 L253.136777,15.0868611 C252.211736,15.1312778 251.286694,15.1756944 250.361653,15.2349167 L249.510028,0.444166667 Z M263.341598,0 L266.278237,0 L266.190138,14.8055556 L263.429697,14.8055556 L263.341598,0 Z M277.173168,0.296111111 C278.156942,0.340527778 279.126033,0.384944444 280.109807,0.444166667 L279.258182,15.2349167 C278.33314,15.1756944 277.408099,15.1312778 276.483058,15.0868611 L277.173168,0.296111111 Z M290.975372,1.30288889 C291.944463,1.40652778 292.928237,1.51016667 293.897328,1.61380556 L292.282176,16.3305278 C291.357135,16.2268889 290.446777,16.1380556 289.521736,16.0492222 L290.975372,1.30288889 Z M304.70416,3.04994444 C305.673251,3.198 306.642342,3.36086111 307.611433,3.52372222 L305.232755,18.122 C304.322397,17.9739444 303.397355,17.8406944 302.486997,17.6926389 L304.70416,3.04994444 Z M318.330165,5.52247222 C319.284573,5.71494444 320.238981,5.92222222 321.193388,6.1295 L318.065868,20.5945278 C317.15551,20.4020556 316.259835,20.2095833 315.349477,20.0171111 L318.330165,5.52247222 Z M331.794656,8.70566667 C332.73438,8.95736111 333.688788,9.19425 334.628512,9.46075 L330.752149,23.7481111 C329.856474,23.4964167 328.975482,23.2595278 328.079807,23.0226389 L331.794656,8.70566667 Z M345.082948,12.5847222 C346.022672,12.8808333 346.947713,13.19175 347.872755,13.5026667 L343.262231,27.5531389 C342.38124,27.2570278 341.500248,26.9757222 340.619256,26.6944167 L345.082948,12.5847222 Z M358.150992,17.1744444 C359.06135,17.5297778 359.986391,17.8851111 360.896749,18.2404444 L355.552066,32.0244167 C354.685758,31.6838889 353.834132,31.3581667 352.967824,31.0324444 L358.150992,17.1744444 Z M370.969421,22.4452222 C371.865096,22.8449722 372.746088,23.2447222 373.641763,23.6444722 L367.60697,37.1323333 C366.770028,36.7473889 365.918402,36.37725 365.066777,36.0071111 L370.969421,22.4452222 Z M383.494187,28.38225 C384.375179,28.8264167 385.241488,29.2705833 386.107796,29.7295556 L379.368209,42.8768889 C378.54595,42.4475278 377.723691,42.0181667 376.901433,41.6036111 L383.494187,28.38225 Z M395.68124,34.9707222 C396.532865,35.4593056 397.369807,35.9478889 398.221433,36.4512778 L390.821102,49.2284722 C390.028209,48.7546944 389.220634,48.2957222 388.413058,47.83675 L395.68124,34.9707222 Z M407.515895,42.1958333 C408.338154,42.7288333 409.160413,43.2618333 409.982672,43.8096389 L401.921598,56.1722778 C401.143388,55.6540833 400.379862,55.1506944 399.601653,54.6473056 L407.515895,42.1958333 Z M418.968788,50.0279722 C419.76168,50.6053889 420.554573,51.1976111 421.347466,51.7750278 L412.655014,63.6935 C411.906171,63.1456944 411.157328,62.5978889 410.408485,62.0500833 L418.968788,50.0279722 Z M429.995868,58.4671389 C430.759394,59.0889722 431.508237,59.7108056 432.271763,60.3326389 L422.9773,71.7773333 C422.257824,71.1851111 421.538347,70.5928889 420.818871,70.0154722 L429.995868,58.4671389 Z M440.567769,67.4689167 C441.301928,68.1203611 442.021405,68.7866111 442.740882,69.4528611 L432.859091,80.3941667 C432.168981,79.7723333 431.493554,79.1505 430.803444,78.5286667 L440.567769,67.4689167 Z M450.655124,77.0185 C451.345234,77.7143611 452.035344,78.4102222 452.725455,79.1060833 L442.285702,89.5143889 C441.639642,88.8481389 440.993581,88.1966944 440.332837,87.54525 L450.655124,77.0185 Z M460.228567,87.0862778 C460.889311,87.81175 461.550055,88.5372222 462.196116,89.2775 L451.227769,99.1231944 C450.611074,98.4273333 449.99438,97.7462778 449.377686,97.0504167 L460.228567,87.0862778 Z M469.273416,97.6426389 C469.89011,98.4125278 470.506804,99.1676111 471.123499,99.9375 L459.670606,109.190972 C459.097961,108.4655 458.510634,107.740028 457.923306,107.014556 L469.273416,97.6426389 Z M477.760303,108.657972 C478.332948,109.457472 478.920275,110.256972 479.49292,111.056472 L467.570165,119.688111 C467.026887,118.933028 466.483609,118.177944 465.940331,117.422861 L477.760303,108.657972 Z M485.659862,120.117472 C486.20314,120.946583 486.731736,121.775694 487.260331,122.604806 L474.911763,130.585 C474.412534,129.800306 473.913306,129.030417 473.399394,128.245722 L485.659862,120.117472 Z M492.95741,131.976722 C493.456639,132.835444 493.941185,133.679361 494.42573,134.538083 L481.666033,141.866833 C481.210854,141.052528 480.755675,140.238222 480.285813,139.438722 L492.95741,131.976722 Z M499.623581,144.191306 C500.07876,145.064833 500.519256,145.938361 500.959752,146.826694 L487.847658,153.474389 C487.436529,152.645278 487.010716,151.816167 486.584904,150.987056 L499.623581,144.191306 Z M505.658375,156.761222 C506.054821,157.664361 506.451267,158.552694 506.847713,159.455833 L493.397906,165.407667 C493.030826,164.548944 492.663747,163.690222 492.281983,162.846306 L505.658375,156.761222 Z M511.017741,169.612444 C511.370138,170.530389 511.722534,171.463139 512.074931,172.381083 L498.33146,177.607444 C498.00843,176.733917 497.685399,175.875194 497.347686,175.001667 L511.017741,169.612444 Z M515.716364,182.744972 C516.024711,183.677722 516.333058,184.610472 516.626722,185.558028 L502.633636,190.058917 C502.354656,189.170583 502.075675,188.28225 501.782011,187.393917 L515.716364,182.744972 Z M519.724876,196.099583 C519.989174,197.047139 520.224105,198.0095 520.473719,198.957056 L506.275069,202.702861 C506.040138,201.799722 505.805207,200.911389 505.555592,200.00825 L519.724876,196.099583 Z M523.028595,209.646667 C523.23416,210.609028 523.439725,211.571389 523.630606,212.53375 L509.255758,215.539278 C509.064876,214.621333 508.873994,213.718194 508.683113,212.80025 L523.028595,209.646667 Z M525.612837,223.341806 C525.774353,224.318972 525.935868,225.296139 526.0827,226.273306 L511.561019,228.508944 C511.414187,227.591 511.282039,226.65825 511.135207,225.740306 L525.612837,223.341806 Z M527.50697,237.170194 C527.609752,238.147361 527.712534,239.139333 527.815317,240.1165 L513.190854,241.58225 C513.102755,240.6495 513.014656,239.731556 512.911873,238.798806 L527.50697,237.170194 Z M528.666942,251.072611 C528.725675,252.064583 528.769725,253.04175 528.813774,254.033722 L514.145262,254.729583 C514.101212,253.796833 514.057163,252.864083 513.99843,251.931333 L528.666942,251.072611 Z M529.107438,265.019444 L529.107438,267.980556 L514.424242,267.891722 L514.424242,265.108278 L529.107438,265.019444 Z M528.813774,278.966278 C528.769725,279.95825 528.725675,280.935417 528.666942,281.927389 L513.99843,281.068667 C514.057163,280.135917 514.101212,279.203167 514.145262,278.270417 L528.813774,278.966278 Z M527.815317,292.8835 C527.712534,293.860667 527.609752,294.852639 527.50697,295.829806 L512.911873,294.201194 C513.014656,293.268444 513.102755,292.3505 513.190854,291.41775 L527.815317,292.8835 Z M526.0827,306.726694 C525.935868,307.703861 525.774353,308.681028 525.612837,309.658194 L511.135207,307.259694 C511.282039,306.34175 511.414187,305.409 511.561019,304.491056 L526.0827,306.726694 Z M523.630606,320.46625 C523.439725,321.428611 523.23416,322.390972 523.028595,323.353333 L508.683113,320.19975 C508.873994,319.281806 509.064876,318.378667 509.255758,317.460722 L523.630606,320.46625 Z M520.473719,334.042944 C520.224105,334.9905 519.989174,335.952861 519.724876,336.900417 L505.555592,332.99175 C505.805207,332.088611 506.040138,331.200278 506.275069,330.297139 L520.473719,334.042944 Z M516.626722,347.441972 C516.333058,348.389528 516.024711,349.322278 515.716364,350.255028 L501.782011,345.606083 C502.075675,344.71775 502.354656,343.829417 502.633636,342.941083 L516.626722,347.441972 Z M512.074931,360.618917 C511.722534,361.536861 511.370138,362.469611 511.017741,363.387556 L497.347686,357.998333 C497.685399,357.124806 498.00843,356.266083 498.33146,355.392556 L512.074931,360.618917 Z M506.847713,373.544167 C506.451267,374.447306 506.054821,375.335639 505.658375,376.238778 L492.281983,370.153694 C492.663747,369.309778 493.030826,368.451056 493.397906,367.592333 L506.847713,373.544167 Z M500.959752,386.173306 C500.519256,387.061639 500.07876,387.935167 499.623581,388.808694 L486.584904,382.012944 C487.010716,381.183833 487.436529,380.354722 487.847658,379.525611 L500.959752,386.173306 Z M494.42573,398.461917 C493.941185,399.320639 493.456639,400.164556 492.95741,401.023278 L480.285813,393.561278 C480.755675,392.761778 481.210854,391.947472 481.666033,391.133167 L494.42573,398.461917 Z M487.260331,410.395194 C486.731736,411.224306 486.20314,412.053417 485.659862,412.882528 L473.399394,404.754278 C473.913306,403.969583 474.412534,403.199694 474.911763,402.415 L487.260331,410.395194 Z M479.49292,421.943528 C478.920275,422.743028 478.332948,423.542528 477.760303,424.342028 L465.940331,415.577139 C466.483609,414.822056 467.026887,414.066972 467.570165,413.311889 L479.49292,421.943528 Z M471.123499,433.0625 C470.506804,433.832389 469.89011,434.587472 469.273416,435.357361 L457.923306,425.985444 C458.510634,425.259972 459.097961,424.5345 459.670606,423.809028 L471.123499,433.0625 Z M462.196116,443.7225 C461.550055,444.462778 460.889311,445.18825 460.228567,445.913722 L449.377686,435.949583 C449.99438,435.253722 450.611074,434.572667 451.227769,433.876806 L462.196116,443.7225 Z M452.725455,453.893917 C452.035344,454.589778 451.345234,455.285639 450.655124,455.9815 L440.332837,445.45475 C440.993581,444.803306 441.639642,444.151861 442.285702,443.485611 L452.725455,453.893917 Z M442.740882,463.547139 C442.021405,464.213389 441.301928,464.879639 440.567769,465.531083 L430.803444,454.471333 C431.493554,453.8495 432.168981,453.227667 432.859091,452.605833 L442.740882,463.547139 Z M432.271763,472.667361 C431.508237,473.289194 430.759394,473.911028 429.995868,474.532861 L420.818871,462.984528 C421.538347,462.407111 422.257824,461.814889 422.9773,461.222667 L432.271763,472.667361 Z M421.347466,481.224972 C420.554573,481.802389 419.76168,482.394611 418.968788,482.972028 L410.408485,470.949917 C411.157328,470.402111 411.906171,469.854306 412.655014,469.3065 L421.347466,481.224972 Z M409.982672,489.190361 C409.160413,489.738167 408.338154,490.271167 407.515895,490.804167 L399.601653,478.352694 C400.379862,477.849306 401.143388,477.345917 401.921598,476.827722 L409.982672,489.190361 Z M398.221433,496.548722 C397.369807,497.052111 396.532865,497.540694 395.68124,498.029278 L388.413058,485.16325 C389.220634,484.704278 390.028209,484.245306 390.821102,483.771528 L398.221433,496.548722 Z M386.107796,503.270444 C385.241488,503.729417 384.375179,504.173583 383.494187,504.61775 L376.901433,491.396389 C377.723691,490.981833 378.54595,490.552472 379.368209,490.123111 L386.107796,503.270444 Z M373.641763,509.355528 C372.746088,509.755278 371.865096,510.155028 370.969421,510.554778 L365.066777,496.992889 C365.918402,496.62275 366.770028,496.252611 367.60697,495.867667 L373.641763,509.355528 Z M360.896749,514.759556 C359.986391,515.114889 359.06135,515.470222 358.150992,515.825556 L352.967824,501.967556 C353.834132,501.641833 354.685758,501.316111 355.552066,500.975583 L360.896749,514.759556 Z M347.872755,519.497333 C346.947713,519.80825 346.022672,520.119167 345.082948,520.415278 L340.619256,506.305583 C341.500248,506.024278 342.38124,505.742972 343.262231,505.446861 L347.872755,519.497333 Z M334.628512,523.53925 C333.688788,523.80575 332.73438,524.042639 331.794656,524.294333 L328.079807,509.977361 C328.975482,509.740472 329.856474,509.503583 330.752149,509.251889 L334.628512,523.53925 Z M321.193388,526.8705 C320.238981,527.077778 319.284573,527.285056 318.330165,527.477528 L315.349477,512.982889 C316.259835,512.790417 317.15551,512.597944 318.065868,512.405472 L321.193388,526.8705 Z M307.611433,529.476278 C306.642342,529.639139 305.673251,529.802 304.70416,529.950056 L302.486997,515.307361 C303.397355,515.159306 304.322397,515.026056 305.232755,514.878 L307.611433,529.476278 Z M293.897328,531.386194 C292.928237,531.489833 291.944463,531.593472 290.975372,531.697111 L289.521736,516.950778 C290.446777,516.861944 291.357135,516.773111 292.282176,516.669472 L293.897328,531.386194 Z M280.109807,532.555833 C279.126033,532.615056 278.156942,532.659472 277.173168,532.703889 L276.483058,517.913139 C277.408099,517.868722 278.33314,517.824306 279.258182,517.765083 L280.109807,532.555833 Z M266.278237,533 L263.341598,533 L263.429697,518.194444 L266.190138,518.194444 L266.278237,533 Z M252.446667,532.703889 C251.462893,532.659472 250.493802,532.615056 249.510028,532.555833 L250.361653,517.765083 C251.286694,517.824306 252.211736,517.868722 253.136777,517.913139 L252.446667,532.703889 Z M238.644463,531.697111 C237.675372,531.593472 236.691598,531.489833 235.722507,531.386194 L237.337658,516.669472 C238.2627,516.773111 239.173058,516.861944 240.098099,516.950778 L238.644463,531.697111 Z M224.915675,529.950056 C223.946584,529.802 222.977493,529.639139 222.008402,529.476278 L224.38708,514.878 C225.297438,515.026056 226.222479,515.159306 227.132837,515.307361 L224.915675,529.950056 Z M211.289669,527.477528 C210.335262,527.285056 209.380854,527.077778 208.426446,526.8705 L211.553967,512.405472 C212.464325,512.597944 213.36,512.790417 214.270358,512.982889 L211.289669,527.477528 Z M197.825179,524.294333 C196.885455,524.042639 195.931047,523.80575 194.991322,523.53925 L198.867686,509.251889 C199.763361,509.503583 200.644353,509.740472 201.540028,509.977361 L197.825179,524.294333 Z M171.468843,515.825556 C170.558485,515.470222 169.633444,515.114889 168.723085,514.759556 L174.067769,500.975583 C174.934077,501.316111 175.785702,501.641833 176.652011,501.967556 L171.468843,515.825556 Z M158.650413,510.554778 C157.754738,510.155028 156.873747,509.755278 155.978072,509.355528 L162.012865,495.867667 C162.849807,496.252611 163.701433,496.62275 164.553058,496.992889 L158.650413,510.554778 Z M146.125647,504.61775 C145.244656,504.173583 144.378347,503.729417 143.512039,503.270444 L150.251625,490.123111 C151.073884,490.552472 151.896143,490.981833 152.718402,491.396389 L146.125647,504.61775 Z M133.938595,498.029278 C133.08697,497.540694 132.250028,497.052111 131.398402,496.548722 L138.798733,483.771528 C139.591625,484.245306 140.399201,484.704278 141.206777,485.16325 L133.938595,498.029278 Z M122.103939,490.804167 C121.28168,490.271167 120.459421,489.738167 119.637163,489.190361 L127.698237,476.827722 C128.476446,477.345917 129.239972,477.849306 130.018182,478.352694 L122.103939,490.804167 Z M99.6239669,474.532861 C98.8604408,473.911028 98.1115978,473.289194 97.3480716,472.667361 L106.642534,461.222667 C107.362011,461.814889 108.081488,462.407111 108.800964,462.984528 L99.6239669,474.532861 Z M89.0520661,465.531083 C88.3179063,464.879639 87.5984298,464.213389 86.8789532,463.547139 L96.7607438,452.605833 C97.450854,453.227667 98.126281,453.8495 98.8163912,454.471333 L89.0520661,465.531083 Z M78.9647107,455.9815 L76.8943802,453.893917 L87.3341322,443.485611 C87.9801928,444.151861 88.6262534,444.803306 89.2869972,445.45475 L78.9647107,455.9815 Z M69.3912672,445.913722 C68.7305234,445.18825 68.0697796,444.462778 67.423719,443.7225 L78.3920661,433.876806 C79.0087603,434.572667 79.6254545,435.253722 80.2421488,435.949583 L69.3912672,445.913722 Z M60.3464187,435.357361 C59.7297245,434.587472 59.1130303,433.832389 58.4963361,433.0625 L69.9492287,423.809028 C70.5218733,424.5345 71.1092011,425.259972 71.6965289,425.985444 L60.3464187,435.357361 Z" id="path-6"></path>
    </defs>
    <g id="Home-page_1" stroke="none" stroke-width="1" fill="none" fill-rule="evenodd" transform="translate(-389.000000, -1222.000000)">
        <g id="Group-13" transform="translate(246.000000, 1222.000000)">
            <g id="Circle" transform="translate(143.000000, 0.000000)">
                <g id="Oval-9">
                    <use fill="url(#linearGradient-1)" fill-rule="evenodd" style="mix-blend-mode: multiply;" xlink:href="#path-3"></use>
                    <use stroke="url(#linearGradient-2)" stroke-width="0.5" xlink:href="#path-3"></use>
                </g>
                <circle id="Oval-9" stroke="url(#linearGradient-4)" stroke-width="0.5" cx="265" cy="266" r="210"></circle>
                <circle id="Oval-9" stroke="url(#linearGradient-4)" stroke-width="0.5" cx="265" cy="266" r="170"></circle>
                <circle id="Oval-9" stroke="url(#linearGradient-4)" stroke-width="0.5" cx="265" cy="266" r="100"></circle>
                <g id="Used-Ticks">
                    <use fill="url(#linearGradient-5)" fill-rule="evenodd" xlink:href="#path-6"></use>
                    <path stroke="url(#linearGradient-5)" stroke-width="2" d="M183.886383,519.156118 L187.746544,506.954177 C187.46247,506.862912 187.219044,506.784249 186.995162,506.711271 L183.007035,518.865003 C183.344499,518.977664 183.627205,519.071312 183.886383,519.156118 Z M110.424603,481.565997 L117.82411,471.17411 C117.59126,471.003772 117.413722,470.873897 117.182661,470.704868 L109.668107,481.00829 C109.780987,481.091445 109.908051,481.185126 110.05529,481.293727 C110.194973,481.396753 110.316357,481.48625 110.424603,481.565997 Z M52.0778995,422.935163 L62.2920734,415.361026 C62.2289517,415.273295 62.1532797,415.168121 62.0528579,415.028548 C61.9577103,414.896306 61.8847811,414.794944 61.8236936,414.710041 L51.5218073,422.16823 C51.6036082,422.281131 51.6957976,422.408263 51.8026658,422.555579 C51.9069684,422.699358 51.9973941,422.824057 52.0778995,422.935163 Z M44.2483714,411.491529 L54.8405276,404.46931 C54.692021,404.240709 54.5480803,404.018254 54.4074292,403.799932 L43.7374311,410.69536 C43.9334847,411.001979 44.0975986,411.257777 44.2483714,411.491529 Z M37.0231669,399.650339 L47.9712255,393.20329 C47.8526909,392.995488 47.7245953,392.76899 47.5754221,392.503707 L36.5548083,398.833585 C36.7082822,399.102543 36.8641199,399.374292 37.0231673,399.650339 Z M30.4247086,387.45771 L41.6917721,381.585324 C41.6281537,381.460912 41.5697192,381.346372 41.5069057,381.223003 C41.4455287,381.102455 41.3861744,380.985575 41.3285246,380.871715 L29.9985012,386.615919 C30.1440761,386.905676 30.2856198,387.185273 30.4247109,387.457709 Z M24.4683191,374.909591 L36.0211282,369.654077 C35.9252526,369.434884 35.8217756,369.196004 35.701369,368.91623 L24.0899876,374.05452 C24.1395457,374.166585 24.194083,374.289846 24.2553767,374.428336 C24.2683023,374.45754 24.2683023,374.45754 24.2812295,374.486748 C24.3520564,374.646775 24.4135283,374.785701 24.4683191,374.909591 Z M19.1753713,362.086644 L30.9840092,357.431258 C30.891129,357.186687 30.7975109,356.938533 30.7025345,356.685204 L18.8366777,361.197547 C18.8866442,361.32865 18.9428822,361.476286 19.0080255,361.647344 C19.0195164,361.677517 19.0195164,361.677517 19.0310061,361.707687 C19.0843982,361.847886 19.1320246,361.97291 19.1753713,362.086644 Z M14.538957,348.988822 L26.5795435,344.971699 C26.5059897,344.742373 26.426734,344.493054 26.3344968,344.20116 L14.246162,348.089385 C14.3313425,348.354207 14.4254023,348.64297 14.538957,348.988822 Z M10.599171,335.668806 L22.8373051,332.292856 C22.7703592,332.043891 22.7020892,331.787594 22.6312854,331.519579 L10.3636903,334.755945 C10.4222995,334.984521 10.4231577,334.987859 10.4834302,335.222275 C10.5247174,335.382587 10.5629977,335.530338 10.599171,335.668806 Z M7.35956913,322.160553 L19.7555312,319.435535 C19.7307477,319.317233 19.7031333,319.185477 19.6716742,319.035411 C19.6410168,318.88917 19.6140027,318.760279 19.5896958,318.644256 L7.16695286,321.241633 C7.19785583,321.390964 7.22993846,321.544863 7.26342273,321.704471 C7.29586797,321.859127 7.32595278,322.001877 7.35956913,322.160553 Z M4.83107147,308.50804 L17.3448933,306.434883 C17.326525,306.313646 17.3061179,306.178499 17.2828936,306.024435 C17.2607414,305.877483 17.2411833,305.747948 17.2235354,305.63143 L4.67822658,307.562803 C4.72228963,307.840112 4.77140597,308.143583 4.83107147,308.50804 Z M3.00252232,294.724326 L15.6088541,293.317633 C15.5835355,293.068654 15.5574364,292.805169 15.5290709,292.512954 L2.90373937,293.77834 C2.91820256,293.916784 2.93446926,294.072569 2.95328662,294.252824 C2.97197187,294.431813 2.98813967,294.586651 3.00252232,294.724326 Z M1.89613488,280.870458 L14.5649659,280.1288 C14.5520339,279.887274 14.5386748,279.624493 14.5235762,279.316656 L1.85006618,279.917876 C1.86665372,280.276253 1.88151753,280.584422 1.89613488,280.870458 Z M1.51239669,266.974487 L14.1955923,266.897754 L14.1955923,266.102246 L1.51239669,266.025513 L1.51239669,266.974487 Z M1.85006618,253.082124 L14.5235762,253.683344 C14.5386748,253.375507 14.5520339,253.112726 14.5649659,252.8712 L1.89613488,252.129542 C1.88151753,252.415578 1.86665372,252.723747 1.85006618,253.082124 Z M2.90373937,239.22166 L15.5290709,240.487046 C15.5574364,240.194831 15.5835355,239.931346 15.6088541,239.682367 L3.00252226,238.275674 C2.98833097,238.411517 2.97242451,238.563851 2.95411108,238.739279 C2.95369885,238.743227 2.95369885,238.743227 2.95328662,238.747176 C2.93446926,238.927431 2.91820256,239.083216 2.90373937,239.22166 Z M4.67822658,225.437197 L17.2235354,227.36857 C17.2411833,227.252052 17.2607414,227.122517 17.2828936,226.975565 C17.3061179,226.821501 17.326525,226.686354 17.3448933,226.565117 L4.83107147,224.49196 C4.77140597,224.856417 4.72228962,225.159888 4.67822658,225.437198 Z M7.16695229,211.758367 L19.5896958,214.355744 C19.6140027,214.239721 19.6410168,214.11083 19.6716742,213.964589 C19.7031333,213.814523 19.7307477,213.682767 19.7555312,213.564465 L7.35956921,210.839447 C7.32594811,210.998145 7.29586545,211.140885 7.26342273,211.295529 C7.22993846,211.455137 7.19785583,211.609036 7.16695286,211.758367 Z M10.3636903,198.244055 L22.6312854,201.480421 C22.7020892,201.212406 22.7703592,200.956109 22.8373051,200.707144 L10.599171,197.331194 C10.5629977,197.469662 10.5247174,197.617413 10.4834302,197.777725 C10.4231577,198.012141 10.4222995,198.015479 10.3636903,198.244055 Z M14.246161,184.910615 L26.3344968,188.79884 C26.426734,188.506946 26.5059897,188.257627 26.5795435,188.028301 L14.5389562,184.011177 C14.4254218,184.356965 14.3313604,184.645733 14.246161,184.910615 Z M18.8366777,171.802453 L30.7025367,176.314797 C30.7975109,176.061467 30.891129,175.813313 30.9840092,175.568742 L19.1753713,170.913356 C19.1320246,171.02709 19.0843982,171.152114 19.0310061,171.292313 C19.0195164,171.322483 19.0195164,171.322483 19.0080255,171.352656 C18.9428822,171.523714 18.8866442,171.67135 18.8366777,171.802453 Z M24.0899891,158.945481 L35.701369,164.08377 C35.8217756,163.803996 35.9252526,163.565116 36.0211282,163.345923 L24.4683191,158.090409 C24.4135283,158.214299 24.3520564,158.353225 24.2812295,158.513252 C24.2085641,158.677433 24.1457838,158.819317 24.0899891,158.945481 Z M29.9985012,146.384081 L41.3285246,152.128285 C41.3861744,152.014425 41.4455287,151.897545 41.5069057,151.776997 C41.5697353,151.653596 41.6281837,151.539029 41.691772,151.414676 L30.4247109,145.542291 C30.2856198,145.814727 30.1440761,146.094324 29.9985012,146.384081 Z M36.5548083,134.166415 L47.5754221,140.496293 C47.7245953,140.23101 47.8526909,140.004512 47.9712255,139.79671 L37.0231669,133.349661 C36.8641199,133.625708 36.7082822,133.897457 36.5548087,134.166415 Z M43.7373743,122.304603 L54.4074304,129.200069 C54.5480803,128.981746 54.692021,128.759291 54.8405276,128.53069 L44.2485229,121.508571 C44.1667083,121.635374 44.082657,121.765993 43.9957494,121.901369 C43.9080781,122.037935 43.8274708,122.163721 43.7373743,122.304603 Z M41.5165823,122.06677 L41.5168707,122.066318 L41.5165823,122.06677 Z M51.5218073,110.83177 L61.8236936,118.289959 C61.8847811,118.205056 61.9577103,118.103694 62.0528579,117.971452 C62.1532797,117.831879 62.2289517,117.726705 62.2920734,117.638974 L52.0778995,110.064837 C51.9973941,110.175943 51.9069684,110.300642 51.8026658,110.444421 C51.6957976,110.591737 51.6036082,110.718869 51.5218073,110.83177 Z M59.9012882,99.7870322 L69.7939346,107.779889 C69.9428377,107.594139 70.105652,107.391892 70.2965502,107.155419 L60.4904063,99.0583732 C60.4050399,99.1640162 60.3092629,99.2824708 60.1988997,99.4189248 C60.0857906,99.5587739 59.9880948,99.6796027 59.9012882,99.7870322 Z M68.8299982,89.1960522 L78.3133306,97.7087289 C78.3903454,97.6226814 78.4757197,97.5273453 78.5722454,97.4195871 C78.6647257,97.3163449 78.6647257,97.3163449 78.7571111,97.2131792 C78.7855183,97.1814526 78.8131354,97.1506014 78.8400353,97.1205435 L69.4551385,88.502588 C69.2138575,88.7687247 69.0129367,88.991514 68.8299982,89.1960522 Z M78.3067243,79.102088 L87.3250118,88.0932107 C87.5086521,87.9068853 87.6927178,87.7213105 87.8775349,87.5361576 L78.2507038,77.7186386 L78.9647107,77.0185 L79.6747455,77.7226667 C78.9463096,78.4571728 78.730467,78.6748141 78.3058038,79.1030162 Z M88.28363,69.5161895 L96.8314258,78.9804708 C96.9159001,78.9035979 97.0094878,78.8183864 97.1152223,78.7220884 C97.2269106,78.620368 97.3251431,78.5309289 97.4134672,78.4505578 L88.9700167,68.8869218 C88.7677524,69.0709249 88.5470908,69.2733062 88.28363,69.5161895 Z M86.1997773,68.7188857 L86.2000467,68.7186363 L86.1997773,68.7188857 Z M98.7523112,60.4754858 L106.784561,70.3659595 C107.017878,70.1744744 107.217563,70.0110559 107.401225,69.8613899 L99.4722987,59.8836285 C99.3957436,59.9465235 99.3135767,60.0140634 99.2242628,60.087503 C99.1727274,60.1298799 99.1727274,60.1298799 99.1211744,60.1722735 C98.9809657,60.2875713 98.8599186,60.3870812 98.7523112,60.4754858 Z M109.668107,51.9917095 L117.772767,63.1042438 L116.964821,63.6935 L116.374401,62.8864038 C117.144139,62.3233129 117.386399,62.1460905 117.82411,61.8258896 L110.424603,51.4340031 C110.316357,51.5137504 110.194973,51.6032467 110.05529,51.7062732 C109.908051,51.8148739 109.780987,51.9085552 109.668107,51.9917095 Z M121.017671,44.0959714 L127.985404,54.7818378 C128.210114,54.6334417 128.428867,54.4895503 128.643614,54.3489061 L121.801477,43.5841777 C121.668036,43.6709559 121.547542,43.7494699 121.417137,43.8345869 C121.279348,43.924524 121.146529,44.0114269 121.017671,44.0959718 Z M132.761442,36.8094061 L139.159386,47.8559091 C139.363202,47.7377657 139.585715,47.6098577 139.846014,47.4610619 L133.564289,36.3412464 C133.299905,36.4946662 133.032773,36.6504429 132.761442,36.8094061 Z M140.712699,46.9674045 C140.715948,46.965558 140.719202,46.9637087 140.722461,46.9618568 L140.712668,46.96735 L140.712699,46.9674045 Z M144.853903,30.1550746 L150.682189,41.5246775 C150.946307,41.3873277 151.172741,41.2700324 151.381125,41.1627175 L145.6801,29.7296648 C145.395831,29.8749129 145.121396,30.0162011 144.853904,30.1550768 Z M157.298997,24.1482329 L162.51565,35.8075359 C162.730189,35.712175 162.964072,35.6091929 163.237238,35.4896719 L158.136949,23.7712707 C158.015936,23.8256859 157.880393,23.886665 157.724607,23.9567687 C157.563202,24.0294011 157.423441,24.0922773 157.298997,24.1482329 Z M170.01668,18.8105404 L174.638068,30.7291299 C174.87688,30.636946 175.119166,30.5440289 175.366427,30.4497825 L170.887036,18.4734376 C170.761049,18.5222556 170.619725,18.5769891 170.457042,18.6399801 C170.289791,18.7047397 170.145194,18.7607418 170.01668,18.8105404 Z M183.007035,14.1349967 L186.995162,26.2887291 C187.219044,26.2157515 187.46247,26.1370881 187.746544,26.0458226 L183.886383,13.8438817 C183.627201,13.928689 183.344494,14.022338 183.007035,14.1349967 Z M196.217736,10.1620084 L199.569553,22.5160131 C199.812098,22.4497246 200.061725,22.3821307 200.322542,22.3120767 L197.109266,9.92815474 C196.897074,9.98347351 196.888869,9.98561846 196.661564,10.0450405 C196.502191,10.0867731 196.35534,10.1254576 196.217736,10.1620084 Z M209.615111,6.89521796 L212.320829,19.4093745 C212.434543,19.3851523 212.560745,19.3582591 212.703702,19.3277888 C212.848355,19.2969568 212.975891,19.2697793 213.090721,19.2453196 L210.511734,6.70409451 C210.368006,6.7343499 210.219994,6.76572832 210.066666,6.79843326 C209.913561,6.83109077 209.772221,6.86137677 209.615111,6.89521796 Z M208.214534,5.1522114 L208.214853,5.15214212 L208.214534,5.1522114 Z M223.155508,4.34559104 L225.214094,16.9794237 C225.331058,16.961411 225.461026,16.9414587 225.608461,16.9188618 C225.752968,16.8967137 225.880489,16.8771376 225.995281,16.8594613 L224.077503,4.19397843 C223.806625,4.23776743 223.510199,4.28655497 223.155508,4.34559104 Z M236.825982,2.50192368 L238.22283,15.2295428 C238.465041,15.2045215 238.721246,15.178724 239.004684,15.1507442 L237.748161,2.40401586 C237.613728,2.41829455 237.462852,2.43431224 237.289032,2.45276149 C237.2871,2.45296658 237.2871,2.45296658 237.285168,2.45317167 C237.111369,2.47161878 236.960479,2.48763804 236.825982,2.50192368 Z M250.565946,1.38656815 L251.302425,14.1774997 C251.537484,14.1647231 251.793078,14.1515149 252.091353,14.1366338 L251.494327,1.34091574 C251.145796,1.35732849 250.845157,1.37207401 250.565946,1.38656815 Z M264.347566,1 L264.423764,13.8055556 L265.19607,13.8055556 L265.272269,1 L264.347566,1 Z M278.125507,1.34091574 L277.528482,14.1366327 C277.826731,14.1515125 278.082326,14.1647208 278.31741,14.1774991 L279.053889,1.38656815 C278.774677,1.37207401 278.474039,1.35732849 278.125507,1.34091574 Z M291.871674,2.40401586 L290.615151,15.1507442 C290.898589,15.178724 291.154794,15.2045215 291.397004,15.2295428 L292.793853,2.50192371 C292.658458,2.48754266 292.506341,2.47139327 292.330802,2.45276149 C292.156983,2.43431224 292.006107,2.41829455 291.871674,2.40401586 Z M305.542332,4.19397843 L303.624554,16.8594613 C303.739346,16.8771376 303.866867,16.8967137 304.011374,16.9188618 C304.158809,16.9414587 304.288777,16.961411 304.405741,16.9794237 L306.464327,4.34559104 C306.109635,4.28655497 305.81321,4.23776743 305.542332,4.19397843 Z M319.108143,6.70388666 L316.529114,19.2453196 C316.643944,19.2697793 316.77148,19.2969568 316.916133,19.3277888 C317.05909,19.3582591 317.185291,19.3851523 317.299006,19.4093745 L320.004707,6.89529422 C319.660445,6.82110161 319.371969,6.75947299 319.108143,6.70388666 Z M332.510569,9.92815474 L329.297292,22.3120767 C329.558109,22.3821307 329.807737,22.4497246 330.050283,22.5160101 L333.402099,10.1620084 C333.264495,10.1254576 333.117644,10.0867731 332.958271,10.0450405 C332.730966,9.98561846 332.722761,9.98347351 332.510569,9.92815474 Z M345.733452,13.8438818 L341.873291,26.0458226 C342.157364,26.1370881 342.400791,26.2157515 342.624673,26.2887291 L346.6128,14.1349968 C346.275335,14.0223365 345.992629,13.9286876 345.733452,13.8438818 Z M358.732799,18.4734391 L354.253408,30.4497825 C354.500669,30.5440289 354.742954,30.636946 354.981766,30.7291299 L359.603154,18.8105404 C359.474641,18.7607418 359.330044,18.7047397 359.162793,18.6399801 C359.132867,18.6283929 359.132867,18.6283929 359.102938,18.6168044 C358.966293,18.5638947 358.844128,18.5165786 358.732799,18.4734391 Z M371.482887,23.7712691 L366.382597,35.4896719 C366.655763,35.6091929 366.889646,35.712175 367.104185,35.8075359 L372.320837,24.1482329 C372.196394,24.0922773 372.056633,24.0294011 371.895228,23.9567687 C371.868578,23.9447766 371.868578,23.9447766 371.841932,23.9327858 C371.709319,23.8731109 371.590837,23.8198092 371.482887,23.7712691 Z M383.939735,29.7296648 L378.238624,41.162889 C378.353922,41.2222357 378.472333,41.2833704 378.594545,41.3466361 C378.711563,41.4072128 378.820571,41.4637505 378.937674,41.5246222 L384.765931,30.1550768 C384.498438,30.0162011 384.224004,29.8749129 383.939735,29.7296648 Z M396.055545,36.3412468 L389.773838,47.4610317 C390.033911,47.6097072 390.256432,47.7376265 390.460456,47.8558975 L396.858393,36.8094057 C396.587061,36.6504429 396.31993,36.4946662 396.055545,36.3412468 Z M407.818325,43.5842295 L400.976221,54.3489061 C401.190968,54.4895503 401.40972,54.6334417 401.634431,54.7818378 L408.602265,44.0958157 C408.371632,43.944538 408.119745,43.7802046 407.818325,43.5842295 Z M419.195232,51.4340031 L411.795725,61.8258896 C411.88207,61.889054 411.985488,61.964708 412.122169,62.0646954 C412.252867,62.1603054 412.35315,62.2336659 412.437174,62.2951324 L419.951728,51.9917095 C419.838847,51.9085552 419.711784,51.8148739 419.564544,51.7062732 C419.424862,51.6032467 419.303477,51.5137504 419.195232,51.4340031 Z M430.147533,59.8836327 L422.218609,69.8613899 C422.402272,70.0110559 422.601957,70.1744744 422.835274,70.3659595 L430.867523,60.4754858 C430.759916,60.3870813 430.638869,60.2875713 430.49866,60.1722735 C430.365982,60.0631679 430.250566,59.9682856 430.147533,59.8836327 Z M440.649818,68.8869215 L432.206368,78.4505578 C432.294692,78.5309289 432.392924,78.620368 432.504612,78.7220884 C432.610347,78.8183864 432.703935,78.9035979 432.788409,78.9804708 L441.336205,69.5161891 C441.07276,69.2733202 440.852098,69.0709379 440.649818,68.8869215 Z M450.659152,78.4426804 L441.7423,87.5361576 C441.927117,87.7213106 442.111183,87.9068853 442.294823,88.0932107 L451.31311,79.102088 C451.227189,79.0154502 451.123561,78.9109585 450.980255,78.7664583 C450.816105,78.6009409 450.808134,78.5929033 450.659152,78.4426804 Z M460.164696,88.5025885 L450.779807,97.1205368 C450.859037,97.2090638 450.947244,97.3075647 451.047589,97.4195871 C451.144115,97.5273453 451.229489,97.6226814 451.306504,97.7087289 L460.789836,89.1960526 C460.606915,88.9915337 460.405995,88.7687456 460.164696,88.5025885 Z M469.129428,99.0583732 L459.323284,107.155419 C459.514183,107.391892 459.676997,107.594139 459.8259,107.779889 L469.718547,99.7870322 C469.63174,99.6796027 469.534044,99.5587739 469.420935,99.4189248 C469.310572,99.2824708 469.214795,99.1640162 469.129428,99.0583732 Z M477.541935,110.064837 L467.327761,117.638974 C467.390883,117.726705 467.466555,117.831879 467.566977,117.971452 C467.662124,118.103694 467.735054,118.205056 467.796141,118.289959 L478.098027,110.83177 C478.016226,110.718869 477.924037,110.591737 477.817169,110.444421 C477.712866,110.300642 477.622441,110.175943 477.541935,110.064837 Z M485.371463,121.508471 L474.779307,128.53069 C474.927814,128.759291 475.071754,128.981746 475.212406,129.200068 L485.882404,122.30464 C485.68635,121.998021 485.522236,121.742223 485.371463,121.508471 Z M492.596668,133.349661 L481.648609,139.79671 C481.767144,140.004512 481.895239,140.23101 482.044413,140.496293 L493.065026,134.166415 C492.911553,133.897457 492.755715,133.625708 492.596667,133.349661 Z M499.195124,145.542291 L487.928005,151.414706 C488.06618,151.68482 488.183923,151.915885 488.291479,152.128199 L499.621334,146.384081 C499.475759,146.094324 499.334215,145.814727 499.195124,145.542291 Z M487.474557,150.530419 L487.474448,150.530206 C487.474484,150.530277 487.474521,150.530348 487.474557,150.530419 Z M505.151516,158.090409 L493.598706,163.345923 C493.694582,163.565116 493.798059,163.803996 493.918466,164.08377 L505.529846,158.945481 C505.474051,158.819317 505.411271,158.677433 505.338605,158.513252 C505.267778,158.353225 505.206306,158.214299 505.151516,158.090409 Z M510.444462,170.913357 L498.635825,175.568742 C498.728706,175.813313 498.822324,176.061467 498.9173,176.314796 L510.783157,171.802453 C510.733191,171.67135 510.676952,171.523714 510.611809,171.352656 C510.548366,171.186062 510.493397,171.041757 510.444462,170.913357 Z M515.080879,184.011177 L503.040291,188.028301 C503.113845,188.257627 503.193101,188.506946 503.285338,188.79884 L515.373674,184.910615 C515.288474,184.645733 515.194413,184.356965 515.080879,184.011177 Z M519.020664,197.331194 L506.782527,200.707145 C506.849475,200.956109 506.917746,201.212406 506.988549,201.480421 L519.256144,198.244055 C519.197535,198.015479 519.196677,198.012141 519.136404,197.777725 C519.095117,197.617413 519.056837,197.469662 519.020664,197.331194 Z M522.260266,210.839447 L509.864303,213.564465 C509.889087,213.682767 509.916701,213.814523 509.948161,213.964589 C509.978818,214.11083 510.005832,214.239721 510.030139,214.355744 L522.452882,211.758367 C522.421979,211.609036 522.389896,211.455137 522.356412,211.295529 C522.323969,211.140883 522.293886,210.998141 522.260266,210.839447 Z M524.788763,224.49196 L512.274941,226.565117 C512.29331,226.686354 512.313717,226.821501 512.336941,226.975565 C512.359093,227.122517 512.378651,227.252052 512.396299,227.36857 L524.941608,225.437197 C524.897545,225.159888 524.848429,224.856417 524.788763,224.49196 Z M526.617312,238.275674 L514.010981,239.682367 C514.036299,239.931346 514.062398,240.194831 514.090764,240.487046 L526.716095,239.22166 C526.701632,239.083216 526.685365,238.927431 526.666548,238.747176 C526.647863,238.568187 526.631695,238.413349 526.617312,238.275674 Z M527.7237,252.129542 L515.054869,252.8712 C515.067801,253.112726 515.08116,253.375507 515.096259,253.683344 L527.769769,253.082124 C527.753181,252.723747 527.738317,252.415578 527.7237,252.129542 Z M528.107438,266.025513 L515.424242,266.102246 L515.424242,266.897754 L528.107438,266.974487 L528.107438,266.025513 Z M527.769769,279.917876 L515.09633,279.316659 C515.089511,279.455206 515.083085,279.583038 515.076046,279.720636 C515.068874,279.860822 515.061762,279.996604 515.054655,280.128788 L527.7237,280.870458 C527.738317,280.584422 527.753181,280.276253 527.769769,279.917876 Z M526.716095,293.77834 L514.090764,292.512954 C514.062398,292.805169 514.036299,293.068654 514.010981,293.317633 L526.617312,294.724326 C526.631695,294.586651 526.647863,294.431813 526.666548,294.252824 C526.685365,294.072569 526.701632,293.916784 526.716095,293.77834 Z M524.941608,307.562803 L512.396299,305.63143 C512.378651,305.747948 512.359093,305.877483 512.336941,306.024435 C512.313717,306.178499 512.29331,306.313646 512.274941,306.434883 L524.788763,308.50804 C524.848429,308.143583 524.897545,307.840112 524.941608,307.562803 Z M522.452882,321.241633 L510.030139,318.644256 C510.005832,318.760279 509.978818,318.88917 509.948161,319.035411 C509.916701,319.185477 509.889087,319.317233 509.864303,319.435535 L522.260266,322.160553 C522.293887,322.001855 522.323969,321.859115 522.356412,321.704471 C522.389896,321.544863 522.421979,321.390964 522.452882,321.241633 Z M519.256144,334.755945 L506.988549,331.519579 C506.917746,331.787594 506.849475,332.043891 506.78253,332.292856 L519.020664,335.668806 C519.056837,335.530338 519.095117,335.382587 519.136404,335.222275 C519.196677,334.987859 519.197535,334.984521 519.256144,334.755945 Z M515.373674,348.089385 L503.285338,344.20116 C503.193101,344.493054 503.113845,344.742373 503.040291,344.971699 L515.080879,348.988823 C515.194413,348.643035 515.288474,348.354267 515.373674,348.089385 Z M510.783157,361.197547 L498.917298,356.685203 C498.822324,356.938533 498.728706,357.186687 498.635825,357.431258 L510.444462,362.086643 C510.493397,361.958243 510.548366,361.813938 510.611809,361.647344 C510.676952,361.476286 510.733191,361.32865 510.783157,361.197547 Z M505.529846,374.054519 L493.918466,368.91623 C493.798059,369.196004 493.694582,369.434884 493.598706,369.654077 L505.151516,374.909591 C505.206306,374.785701 505.267778,374.646775 505.338605,374.486748 C505.411271,374.322567 505.474051,374.180683 505.529846,374.054519 Z M499.621334,386.615919 L488.29131,380.871715 C488.23366,380.985575 488.174306,381.102455 488.112929,381.223003 C488.050114,381.346375 487.991678,381.460918 487.928063,381.585324 L499.195126,387.45771 C499.334215,387.185273 499.475759,386.905676 499.621334,386.615919 Z M493.065026,398.833585 L482.044413,392.503707 C481.895239,392.76899 481.767144,392.995488 481.648609,393.20329 L492.596668,399.650339 C492.755715,399.374292 492.911553,399.102543 493.065026,398.833585 Z M485.882404,410.69536 L475.212406,403.799932 C475.071754,404.018254 474.927814,404.240709 474.779307,404.46931 L485.371463,411.491529 C485.522236,411.257777 485.68635,411.001979 485.882404,410.69536 Z M478.098027,422.16823 L467.796141,414.710041 C467.735054,414.794944 467.662124,414.896306 467.566977,415.028548 C467.466555,415.168121 467.390883,415.273295 467.327761,415.361026 L477.541935,422.935163 C477.622441,422.824057 477.712866,422.699358 477.817169,422.555579 C477.924037,422.408263 478.016226,422.281131 478.098027,422.16823 Z M469.718547,433.212968 L459.8259,425.220111 C459.676997,425.405861 459.514183,425.608108 459.323284,425.844581 L469.129428,433.941627 C469.214795,433.835984 469.310572,433.717529 469.420935,433.581075 C469.534044,433.441226 469.63174,433.320397 469.718547,433.212968 Z M460.789836,443.803948 L451.306504,435.291271 C451.229489,435.377319 451.144115,435.472655 451.047589,435.580413 C450.947244,435.692435 450.859037,435.790936 450.779807,435.879463 L460.164696,444.497412 C460.405977,444.231275 460.606898,444.008486 460.789836,443.803948 Z M451.31311,453.897912 L442.294823,444.906789 C442.111183,445.093115 441.927117,445.278689 441.7423,445.463842 L450.659152,454.55732 C450.742763,454.473012 450.843422,454.371515 450.980255,454.233542 C451.123385,454.089219 451.226934,453.984806 451.312794,453.898231 Z M441.336206,463.483812 L432.788409,454.019529 C432.703935,454.096402 432.610347,454.181614 432.504612,454.277912 C432.392924,454.379632 432.294692,454.469071 432.206368,454.549442 L440.649819,464.113079 C440.852118,463.929045 441.072782,463.726661 441.336206,463.483812 Z M430.867523,472.524514 L422.835274,462.63404 C422.601957,462.825526 422.402272,462.988944 422.218609,463.13861 L430.147533,473.116367 C430.250566,473.031714 430.365982,472.936832 430.49866,472.827727 C430.638869,472.712429 430.759916,472.612919 430.867523,472.524514 Z M419.951728,481.00829 L412.437174,470.704868 C412.35315,470.766334 412.252867,470.839695 412.122169,470.935305 C411.985488,471.035292 411.88207,471.110946 411.795725,471.17411 L419.195232,481.565997 C419.303477,481.48625 419.424862,481.396753 419.564544,481.293727 C419.711784,481.185126 419.838847,481.091445 419.951728,481.00829 Z M408.602264,488.904183 L401.634431,478.218162 C401.40972,478.366558 401.190968,478.51045 400.976221,478.651094 L407.818322,489.415766 C408.119838,489.21973 408.371719,489.055401 408.602264,488.904183 Z M396.858393,496.190594 L390.460456,485.144103 C390.256432,485.262374 390.033911,485.390293 389.773838,485.538968 L396.055545,496.658754 C396.31993,496.505334 396.587061,496.349557 396.858393,496.190594 Z M384.765932,502.844925 L378.937674,491.475378 C378.820497,491.536288 378.711523,491.592808 378.594545,491.653364 C378.472333,491.71663 378.353922,491.777764 378.238624,491.837111 L383.939735,503.270335 C384.224004,503.125087 384.498438,502.983799 384.765931,502.844923 Z M372.320837,508.851767 L367.104185,497.192464 C366.889646,497.287825 366.655763,497.390807 366.382597,497.510328 L371.482886,509.228729 C371.603899,509.174314 371.739442,509.113335 371.895228,509.043231 C372.056633,508.970599 372.196394,508.907723 372.320837,508.851767 Z M359.603154,514.18946 L354.981766,502.27087 C354.742954,502.363054 354.500669,502.455971 354.253408,502.550218 L358.732799,514.526562 C358.858786,514.477744 359.000109,514.423011 359.162793,514.36002 C359.330044,514.29526 359.474641,514.239258 359.603154,514.18946 Z M346.6128,518.865003 L342.624673,506.711271 C342.400791,506.784249 342.157364,506.862912 341.873291,506.954177 L345.733452,519.156118 C345.992629,519.071312 346.275335,518.977664 346.6128,518.865003 Z M333.402099,522.837992 L330.050282,510.483987 C329.807737,510.550275 329.558109,510.617869 329.297292,510.687923 L332.510569,523.071845 C332.722761,523.016526 332.730966,523.014382 332.958271,522.954959 C333.117644,522.913227 333.264495,522.874542 333.402099,522.837992 Z M320.004707,526.104706 L317.299006,513.590625 C317.185291,513.614848 317.05909,513.641741 316.916133,513.672211 C316.77148,513.703043 316.643944,513.730221 316.529114,513.75468 L319.108143,526.296113 C319.371969,526.240527 319.660445,526.178898 320.004707,526.104706 Z M306.46434,528.654488 L304.405741,516.020576 C304.288777,516.038589 304.158809,516.058541 304.011374,516.081138 C303.866867,516.103286 303.739346,516.122862 303.624554,516.140539 L305.5423,528.80581 C305.688715,528.782168 305.839506,528.757596 305.995731,528.731939 C306.154479,528.705867 306.30077,528.681696 306.46434,528.654488 Z M292.793853,530.498076 L291.397004,517.770457 C291.154794,517.795478 290.898589,517.821276 290.615151,517.849256 L291.871674,530.595984 C292.006107,530.581705 292.156983,530.565688 292.330802,530.547239 C292.506341,530.528607 292.658458,530.512457 292.793853,530.498076 Z M279.053889,531.613432 L278.31741,518.822501 C278.082326,518.835279 277.826731,518.848487 277.528482,518.863367 L278.125507,531.659084 C278.474039,531.642672 278.774677,531.627926 279.053889,531.613432 Z M265.272269,532 L265.19607,519.194444 L264.423764,519.194444 L264.347566,532 L265.272269,532 Z M251.494327,531.659084 L252.091353,518.863367 C251.793104,518.848487 251.537509,518.835279 251.302425,518.822501 L250.565946,531.613432 C250.845157,531.627926 251.145796,531.642672 251.494327,531.659084 Z M237.748161,530.595984 L239.004684,517.849256 C238.721246,517.821276 238.465041,517.795478 238.22283,517.770457 L236.825982,530.498076 C236.961377,530.512457 237.113493,530.528607 237.289032,530.547239 C237.462852,530.565688 237.613728,530.581705 237.748161,530.595984 Z M224.077503,528.806022 L225.995281,516.140539 C225.880489,516.122862 225.752968,516.103286 225.608461,516.081138 C225.461026,516.058541 225.331058,516.038589 225.214094,516.020576 L223.155508,528.654409 C223.510199,528.713445 223.806625,528.762233 224.077503,528.806022 Z M210.511734,526.295905 L213.090721,513.75468 C212.975891,513.730221 212.848355,513.703043 212.703702,513.672211 C212.560745,513.641741 212.434543,513.614848 212.320829,513.590625 L209.615111,526.104782 C209.772199,526.138618 209.913549,526.168907 210.066666,526.201567 C210.219994,526.234272 210.368006,526.26565 210.511734,526.295905 Z M197.109266,523.071845 L200.322542,510.687923 C200.061725,510.617869 199.812098,510.550275 199.569552,510.48399 L196.217736,522.837992 C196.35534,522.874542 196.502191,522.913227 196.661564,522.954959 C196.888869,523.014382 196.897074,523.016526 197.109266,523.071845 Z M170.887036,514.526562 L175.366427,502.550218 C175.119166,502.455971 174.87688,502.363054 174.638068,502.27087 L170.01668,514.18946 C170.145194,514.239258 170.289791,514.29526 170.457042,514.36002 C170.619725,514.423011 170.761049,514.477744 170.887036,514.526562 Z M158.136949,509.228729 L163.237238,497.510328 C162.964072,497.390807 162.730189,497.287825 162.51565,497.192464 L157.298997,508.851767 C157.423441,508.907723 157.563202,508.970599 157.724607,509.043231 C157.880393,509.113335 158.015936,509.174314 158.136949,509.228729 Z M145.6801,503.270335 L151.381125,491.837282 C151.172741,491.729968 150.946307,491.612672 150.682189,491.475322 L144.853903,502.844925 C145.121396,502.983799 145.395831,503.125087 145.6801,503.270335 Z M133.564289,496.658753 L139.845997,485.538968 C139.585924,485.390293 139.363403,485.262374 139.159379,485.144103 L132.761442,496.190594 C133.032773,496.349557 133.299905,496.505334 133.564289,496.658753 Z M121.801513,489.415766 L128.643614,478.651094 C128.428867,478.51045 128.210114,478.366558 127.985404,478.218162 L121.017571,488.904183 C121.248108,489.055396 121.499989,489.219725 121.801513,489.415766 Z M99.472302,473.116367 L107.401225,463.13861 C107.217563,462.988944 107.017878,462.825526 106.784561,462.63404 L98.7523112,472.524514 C98.8599186,472.612919 98.9809657,472.712429 99.1211744,472.827727 C99.2538529,472.936832 99.3692687,473.031714 99.472302,473.116367 Z M88.9700164,464.113079 L97.4134672,454.549442 C97.3251431,454.469071 97.2269106,454.379632 97.1152223,454.277912 C97.0094878,454.181614 96.9159001,454.096402 96.8314258,454.019529 L88.2836296,463.483811 C88.5470745,463.72668 88.767737,463.929062 88.9700164,464.113079 Z M78.9606823,454.55732 L87.8775349,445.463842 C87.6927178,445.278689 87.5086521,445.093115 87.3250118,444.906789 L78.3067243,453.897912 L78.9606823,454.55732 Z M69.4551385,444.497412 L78.8400353,435.879456 C78.8131354,435.849399 78.7855183,435.818547 78.7571111,435.786821 C78.6647257,435.683655 78.6647257,435.683655 78.5722454,435.580413 C78.4757197,435.472655 78.3903454,435.377319 78.3133306,435.291271 L68.8299982,443.803948 C69.0129368,444.008486 69.2138575,444.231275 69.4551385,444.497412 Z M60.4904063,433.941627 L70.2965502,425.844581 C70.105652,425.608108 69.9428377,425.405861 69.7939346,425.220111 L59.9012882,433.212968 C59.9880948,433.320397 60.0857906,433.441226 60.1988997,433.581075 C60.3092629,433.717529 60.4050399,433.835984 60.4904063,433.941627 Z"></path>
                </g>
            </g>
        </g>
    </g>
</svg>