<?xml version="1.0" encoding="UTF-8"?>
<svg width="32px" height="25px" viewBox="0 0 32 25" version="1.1" xmlns="http://www.w3.org/2000/svg" xmlns:xlink="http://www.w3.org/1999/xlink">
    <!-- Generator: Sketch 48.2 (47327) - http://www.bohemiancoding.com/sketch -->
    <title>@1xspeaker</title>
    <desc>Created with Sketch.</desc>
    <defs></defs>
    <g id="Home-page_1170px" stroke="none" stroke-width="1" fill="none" fill-rule="evenodd" transform="translate(-785.000000, -1690.000000)">
        <g id="speaker" transform="translate(785.000000, 1690.000000)" fill="#CCCCCC" fill-rule="nonzero">
            <path d="M19.7708333,0.276492537 C19.084204,-0.090920398 18.2552239,-0.0507462687 17.6074005,0.381156716 L8.55006219,6.41952736 L5.11629353,6.41952736 C4.23569652,6.41952736 3.51212687,7.09937811 3.439801,7.96150498 L2.95503731,7.96150498 C1.3255597,7.96150498 0,9.28712687 0,10.9165423 L0,14.0834577 C0,15.7128731 1.3255597,17.038495 2.95503731,17.038495 L3.439801,17.038495 C3.51212687,17.9006841 4.23569652,18.5804726 5.11629353,18.5804726 L8.55,18.5804726 L17.6073383,24.6188433 C17.9605721,24.8543532 18.3677239,24.9733831 18.7761194,24.9733831 C19.1167289,24.9733831 19.4584577,24.8906095 19.7707711,24.7235697 C20.4574005,24.3560945 20.883893,23.6441542 20.883893,22.8654229 L20.883893,2.1346393 C20.883893,1.35590796 20.4574005,0.643967662 19.7708333,0.276492537 Z M3.43264925,15.3663557 L2.95503731,15.3663557 C2.247699,15.3663557 1.67220149,14.7908582 1.67220149,14.0835199 L1.67220149,10.9166045 C1.67220149,10.2092662 2.247699,9.63376866 2.95503731,9.63376866 L3.43264925,9.63376866 L3.43264925,15.3663557 Z M7.96710199,16.9082711 L7.9670398,16.9082711 L5.11629353,16.9082711 C5.11001244,16.9082711 5.10485075,16.9031716 5.10485075,16.8968284 L5.10485075,16.2023632 L5.10485075,8.10310945 C5.10485075,8.09682836 5.11001244,8.09166667 5.11629353,8.09166667 L7.96710199,8.09166667 L7.96710199,16.9082711 Z M19.2116915,22.8654229 C19.2116915,23.1006841 19.0509328,23.2121891 18.9818408,23.2491915 C18.9126866,23.2860697 18.7306592,23.3580846 18.5349502,23.2275498 L9.63930348,17.2969527 L9.63930348,7.70304726 L18.5349502,1.77245025 C18.730597,1.64191542 18.9126244,1.71380597 18.9818408,1.75080846 C19.0509328,1.78774876 19.2116915,1.89919154 19.2116915,2.13457711 L19.2116915,22.8654229 Z" id="Shape"></path>
            <path d="M29.3255597,12.5 L31.620398,10.2051617 C31.9143035,9.91125622 31.9143035,9.43476368 31.620398,9.14085821 C31.3264303,8.84707711 30.8500622,8.84707711 30.5560945,9.14085821 L28.2612562,11.4356965 L25.9664179,9.14085821 C25.6725124,8.8471393 25.1962065,8.84695274 24.9022388,9.14085821 C24.6083333,9.43476368 24.6083333,9.91125622 24.9022388,10.2051617 L27.1970149,12.5 L24.9021766,14.7948383 C24.6082711,15.0887438 24.6082711,15.5652363 24.9021766,15.8591418 C25.0491915,16.0060323 25.2417289,16.0795398 25.4342662,16.0795398 C25.6268035,16.0795398 25.819403,16.0060323 25.9663557,15.8591418 L28.261194,13.5642413 L30.5560323,15.8591418 C30.7030473,16.0060323 30.8955846,16.0795398 31.0881219,16.0795398 C31.2806592,16.0795398 31.4732587,16.0060323 31.6202114,15.8591418 C31.9141169,15.5652363 31.9141169,15.0887438 31.6202114,14.7948383 L29.3255597,12.5 Z" id="Shape"></path>
        </g>
    </g>
</svg>