<?xml version="1.0" encoding="UTF-8"?>
<svg width="20px" height="30px" viewBox="0 0 20 30" version="1.1" xmlns="http://www.w3.org/2000/svg" xmlns:xlink="http://www.w3.org/1999/xlink">
    <!-- Generator: Sketch 48.2 (47327) - http://www.bohemiancoding.com/sketch -->
    <title>@1xShape</title>
    <desc>Created with Sketch.</desc>
    <defs></defs>
    <g id="Home-page_1170px" stroke="none" stroke-width="1" fill="none" fill-rule="evenodd" transform="translate(-517.000000, -1248.000000)">
        <path d="M524.716587,1277.94463 C524.808872,1277.98216 524.90485,1278.00009 525.000124,1278.00009 C525.246834,1278.00009 525.486162,1277.87713 525.628633,1277.6596 L536.878705,1260.40946 C537.041479,1260.16046 537.040688,1259.83869 536.877914,1259.5897 C536.714436,1259.3407 536.418946,1259.20948 536.127147,1259.26046 L528.172556,1260.58568 L530.238086,1248.88033 C530.301104,1248.52411 530.101591,1248.17386 529.762595,1248.04704 C529.425884,1247.92179 529.043382,1248.0538 528.857316,1248.36353 L517.607245,1267.11362 C517.45572,1267.3649 517.465476,1267.67991 517.630536,1267.92213 C517.794804,1268.16366 518.085812,1268.28741 518.373041,1268.23942 L526.301353,1266.91868 L524.264299,1277.10298 C524.194601,1277.4556 524.383655,1277.80892 524.716587,1277.94463 Z M519.729114,1266.49355 L528.056452,1252.61325 L526.512203,1261.36958 C526.469488,1261.60961 526.545954,1261.85483 526.71699,1262.02806 C526.888729,1262.2013 527.133243,1262.28084 527.373273,1262.23953 L534.689599,1261.02074 L526.499547,1273.57811 L527.985348,1266.14708 C528.034127,1265.90556 527.960562,1265.65586 527.789614,1265.47806 C527.646351,1265.33101 527.452112,1265.25007 527.250402,1265.25007 C527.209181,1265.25007 527.168663,1265.25305 527.127442,1265.26052 L519.729114,1266.49355 Z" id="Shape" fill="#CCCCCC" fill-rule="nonzero"></path>
    </g>
</svg>