<?xml version="1.0" encoding="UTF-8"?>
<svg width="26px" height="30px" viewBox="0 0 26 30" version="1.1" xmlns="http://www.w3.org/2000/svg" xmlns:xlink="http://www.w3.org/1999/xlink">
    <!-- Generator: Sketch 48.2 (47327) - http://www.bohemiancoding.com/sketch -->
    <title>@1xLight</title>
    <desc>Created with Sketch.</desc>
    <defs></defs>
    <g id="Home-page_1170px" stroke="none" stroke-width="1" fill="none" fill-rule="evenodd" transform="translate(-822.000000, -1178.000000)">
        <g id="Light" transform="translate(822.000000, 1178.000000)" fill="#CCCCCC" fill-rule="nonzero">
            <path d="M21.6498047,11.3429297 C19.4017969,9.31798828 16.4603906,8.14910156 13.3124414,8.01761719 L13.3124414,0.597597656 C13.3124414,0.267539062 13.0449023,0 12.7148438,0 C12.3847852,0 12.1172461,0.267539062 12.1172461,0.597597656 L12.1172461,8.01755859 C8.96929688,8.14910156 6.02789063,9.31792969 3.77988281,11.3428711 C1.37267578,13.5113086 0.0469921875,16.3993359 0.0469921875,19.4750977 C0.0469921875,19.8051562 0.31453125,20.0726953 0.644589844,20.0726953 L7.57529297,20.0726953 C7.89832031,22.3975781 10.08,24.2011523 12.7148438,24.2011523 C15.3496875,24.2011523 17.5313672,22.3975781 17.8543945,20.0726953 L24.7850977,20.0726953 C25.1151563,20.0726953 25.3826953,19.8051563 25.3826953,19.4750977 C25.3827539,16.3993945 24.0570117,13.5113672 21.6498047,11.3429297 Z M12.7148438,23.0060156 C10.7470898,23.0060156 9.1078125,21.7360547 8.78630859,20.0727539 L16.6433203,20.0727539 C16.321875,21.7359961 14.6825977,23.0060156 12.7148438,23.0060156 Z M1.26134766,18.8775586 C1.60804688,13.4888672 6.61271484,9.20003906 12.7148438,9.20003906 C18.8169727,9.20003906 23.8216406,13.4888672 24.1683398,18.8775586 L1.26134766,18.8775586 Z" id="Shape"></path>
            <path d="M12.6517969,25.1490234 C12.3217383,25.1490234 12.0541992,25.4165625 12.0541992,25.7466211 L12.0541992,29.4024023 C12.0541992,29.7324609 12.3217383,30 12.6517969,30 C12.9818555,30 13.2493945,29.7324609 13.2493945,29.4024023 L13.2493945,25.7466211 C13.2493945,25.4165625 12.9818555,25.1490234 12.6517969,25.1490234 Z" id="Shape"></path>
            <path d="M20.0793164,26.0998828 L19.9339453,25.9544531 C19.7005664,25.7210742 19.322168,25.7210742 19.0887305,25.9544531 C18.8553516,26.187832 18.8553516,26.5662305 19.0887305,26.799668 L19.2341602,26.9450977 C19.3508789,27.0618164 19.5038086,27.1201172 19.6567383,27.1201172 C19.809668,27.1201172 19.9626563,27.0618164 20.0793164,26.9450977 C20.3126953,26.7117187 20.3126953,26.3333203 20.0793164,26.0998828 Z" id="Shape"></path>
            <path d="M18.6210938,24.6416016 L17.4943945,23.5148437 C17.2610156,23.2814648 16.8826172,23.2814648 16.6491797,23.5148437 C16.4158008,23.7482227 16.4158008,24.1266211 16.6491797,24.3600586 L17.7759375,25.4868164 C17.8926563,25.6035352 18.0455859,25.6618359 18.1985156,25.6618359 C18.3514453,25.6618359 18.5044336,25.6035352 18.6210938,25.4868164 C18.8544727,25.2534375 18.8544727,24.8750391 18.6210938,24.6416016 Z" id="Shape"></path>
            <path d="M8.58052734,23.6931445 C8.34720703,23.4597656 7.96880859,23.4597656 7.73537109,23.6931445 L5.15039062,26.278125 C4.91701172,26.5115039 4.91701172,26.8899023 5.15039062,27.1233398 C5.26710937,27.2400586 5.42003906,27.2983594 5.57296875,27.2983594 C5.72589844,27.2983594 5.87888672,27.2400586 5.99554687,27.1233398 L8.58058594,24.5383008 C8.81390625,24.3049805 8.81390625,23.926582 8.58052734,23.6931445 Z" id="Shape"></path>
        </g>
    </g>
</svg>