<?xml version="1.0" encoding="UTF-8"?>
<svg width="26px" height="30px" viewBox="0 0 26 30" version="1.1" xmlns="http://www.w3.org/2000/svg" xmlns:xlink="http://www.w3.org/1999/xlink">
    <!-- Generator: Sketch 48.2 (47327) - http://www.bohemiancoding.com/sketch -->
    <title>@1xGroup 14</title>
    <desc>Created with Sketch.</desc>
    <defs></defs>
    <g id="Home-page_1170px" stroke="none" stroke-width="1" fill="none" fill-rule="evenodd" transform="translate(-795.000000, -1249.000000)">
        <g id="Group-13" transform="translate(246.000000, 1223.000000)" fill="#CCCCCC" fill-rule="nonzero">
            <g id="Group-14" transform="translate(549.000000, 26.000000)">
                <path d="M20.8171876,10.1828293 C20.573428,9.93905691 20.1771427,9.93905691 19.9333831,10.1828293 L11.6255741,18.4910724 L7.06662422,13.9331736 C6.82286458,13.6894012 6.42657937,13.6894012 6.18281973,13.9331736 C5.93906009,14.1769459 5.93906009,14.5732518 6.18281973,14.8170242 L11.182998,19.8174637 C11.3055223,19.9387053 11.4654896,20 11.6255155,20 C11.7855413,20 11.9455086,19.9387639 12.0668024,19.8174637 L20.817129,11.0666799 C21.0609472,10.822849 21.0609472,10.4266017 20.8171876,10.1828293 Z" id="Shape"></path>
                <path d="M25.558,3.7762372 L13.177067,0.0262353644 C13.0607054,-0.00874512146 12.9381339,-0.00874512146 12.8217143,0.0262353644 L0.44078125,3.7762372 C0.179504464,3.85498723 0,4.09873735 0,4.37500702 L0,18.1250333 C0,23.652536 8.34721875,28.5687884 12.8167813,29.9725195 C12.8762098,29.9912695 12.9381339,30 13,30 C13.0618661,30 13.1237902,29.9912695 13.1832187,29.9725195 C17.6527812,28.5674993 26,23.6524774 26,18.1249747 L26,4.37500702 C26,4.09873735 25.8204955,3.8562177 25.558,3.7762372 Z M24.7619241,18.1249747 C24.7619241,22.5137073 17.8744196,27.1287291 13,28.7199603 C8.12563839,27.1287291 1.23807589,22.5137073 1.23807589,18.1249747 L1.23807589,4.84000725 L13,1.27750551 L24.7619241,4.84000725 L24.7619241,18.1249747 Z" id="Shape"></path>
            </g>
        </g>
    </g>
</svg>