<?xml version="1.0" encoding="UTF-8"?>
<svg width="33px" height="19px" viewBox="0 0 33 19" version="1.1" xmlns="http://www.w3.org/2000/svg" xmlns:xlink="http://www.w3.org/1999/xlink">
    <!-- Generator: Sketch 48.2 (47327) - http://www.bohemiancoding.com/sketch -->
    <title>@1xvisibility</title>
    <desc>Created with Sketch.</desc>
    <defs></defs>
    <g id="Home-page_1170px" stroke="none" stroke-width="1" fill="none" fill-rule="evenodd" transform="translate(-503.000000, -1693.000000)">
        <g id="visibility" transform="translate(503.000000, 1693.000000)" fill="#CCCCCC" fill-rule="nonzero">
            <path d="M32.30608,9.11601 C32.05072,8.74443333 25.9139733,0.0419266667 16.2130167,0.0419266667 C7.8888,0.0419266667 0.4712,8.69446333 0.159093333,9.06331667 C-0.05301,9.31462333 -0.05301,9.68347667 0.159093333,9.93611333 C0.4712,10.3049667 7.8888,18.9575033 16.2130167,18.9575033 C24.5372333,18.9575033 31.95477,10.3049667 32.2668767,9.93611333 C32.46283,9.70374333 32.4803733,9.36731667 32.30608,9.11601 Z M16.2130167,17.6064133 C9.5399,17.6064133 3.19504,11.24268 1.58320667,9.49974667 C3.19238,7.75548333 9.53046333,1.39308 16.2130167,1.39308 C24.0210667,1.39308 29.53227,7.74737667 30.8779767,9.46326667 C29.3241567,11.1507833 22.94288,17.6064133 16.2130167,17.6064133 Z" id="Shape"></path>
            <path d="M16.2130167,4.09526 C13.2324867,4.09526 10.8085933,6.51915333 10.8085933,9.49968333 C10.8085933,12.4802133 13.2324867,14.9041067 16.2130167,14.9041067 C19.1935467,14.9041067 21.61744,12.4802133 21.61744,9.49968333 C21.61744,6.51915333 19.1935467,4.09526 16.2130167,4.09526 Z M16.2130167,13.55308 C13.9783,13.55308 12.1596833,11.7344633 12.1596833,9.49974667 C12.1596833,7.26503 13.9783,5.44641333 16.2130167,5.44641333 C18.4477333,5.44641333 20.26635,7.26503 20.26635,9.49974667 C20.26635,11.7344633 18.4477333,13.55308 16.2130167,13.55308 Z" id="Shape"></path>
        </g>
    </g>
</svg>