<?xml version="1.0" encoding="UTF-8"?>
<svg width="35px" height="35px" viewBox="0 0 35 35" version="1.1" xmlns="http://www.w3.org/2000/svg" xmlns:xlink="http://www.w3.org/1999/xlink">
    <g id="Page-1" stroke="none" stroke-width="1" fill="none" fill-rule="evenodd">
        <g id="sun" fill="#fff" fill-rule="nonzero">
            <path d="M23.6567657,11.2739274 C22.0858086,9.7029703 19.8679868,8.68646865 17.4653465,8.68646865 C15.0627063,8.68646865 12.8448845,9.65676568 11.2739274,11.2739274 C9.7029703,12.8448845 8.68646865,15.0627063 8.68646865,17.4653465 C8.68646865,19.8679868 9.7029703,22.0858086 11.2739274,23.6567657 C12.8448845,25.2277228 15.0627063,26.2442244 17.4653465,26.2442244 C19.8679868,26.2442244 22.0858086,25.2739274 23.6567657,23.6567657 C25.2277228,22.0858086 26.2442244,19.8679868 26.2442244,17.4653465 C26.2442244,15.0627063 25.2739274,12.8448845 23.6567657,11.2739274 Z M21.9933993,21.9933993 C20.8382838,23.1485149 19.2211221,23.8415842 17.4653465,23.8415842 C15.709571,23.8415842 14.0924092,23.1485149 12.9372937,21.9933993 C11.7821782,20.8382838 11.0891089,19.2211221 11.0891089,17.4653465 C11.0891089,15.709571 11.7821782,14.0924092 12.9372937,12.9372937 C14.0924092,11.7821782 15.709571,11.0891089 17.4653465,11.0891089 C19.2211221,11.0891089 20.8382838,11.7821782 21.9933993,12.9372937 C23.1485149,14.0924092 23.8415842,15.709571 23.8415842,17.4653465 C23.8415842,19.2211221 23.1485149,20.8382838 21.9933993,21.9933993 Z" id="Shape"></path>
            <path d="M33.7293729,16.2640264 L30.1716172,16.2640264 C29.5247525,16.2640264 28.970297,16.8184818 28.970297,17.4653465 C28.970297,18.1122112 29.5247525,18.6666667 30.1716172,18.6666667 L33.7293729,18.6666667 C34.3762376,18.6666667 34.9306931,18.1122112 34.9306931,17.4653465 C34.9306931,16.8184818 34.3762376,16.2640264 33.7293729,16.2640264 Z" id="Shape"></path>
            <path d="M17.4653465,28.970297 C16.8184818,28.970297 16.2640264,29.5247525 16.2640264,30.1716172 L16.2640264,33.7293729 C16.2640264,34.3762376 16.8184818,34.9306931 17.4653465,34.9306931 C18.1122112,34.9306931 18.6666667,34.3762376 18.6666667,33.7293729 L18.6666667,30.1716172 C18.6666667,29.5247525 18.1122112,28.970297 17.4653465,28.970297 Z" id="Shape"></path>
            <path d="M29.8019802,28.1386139 L27.2607261,25.5973597 C26.8448845,25.1353135 26.0594059,25.1353135 25.5973597,25.5973597 C25.1353135,26.0594059 25.1353135,26.7986799 25.5973597,27.2607261 L28.1386139,29.8019802 C28.6006601,30.2640264 29.339934,30.2640264 29.8019802,29.8019802 C30.2640264,29.339934 30.2640264,28.6006601 29.8019802,28.1386139 Z" id="Shape"></path>
            <path d="M17.4653465,0 C16.8184818,0 16.2640264,0.554455446 16.2640264,1.20132013 L16.2640264,4.75907591 C16.2640264,5.40594059 16.8184818,5.96039604 17.4653465,5.96039604 C18.1122112,5.96039604 18.6666667,5.40594059 18.6666667,4.75907591 L18.6666667,1.20132013 C18.6666667,0.554455446 18.1122112,0 17.4653465,0 Z" id="Shape"></path>
            <path d="M29.8481848,5.12871287 C29.3861386,4.66666667 28.6468647,4.66666667 28.1848185,5.12871287 L25.6435644,7.669967 C25.1815182,8.1320132 25.1815182,8.87128713 25.6435644,9.33333333 C26.0594059,9.79537954 26.8448845,9.79537954 27.3069307,9.33333333 L29.8481848,6.79207921 C30.310231,6.330033 30.310231,5.59075908 29.8481848,5.12871287 Z" id="Shape"></path>
            <path d="M4.75907591,16.2640264 L1.20132013,16.2640264 C0.554455446,16.2640264 0,16.8184818 0,17.4653465 C0,18.1122112 0.508250825,18.6666667 1.20132013,18.6666667 L4.75907591,18.6666667 C5.40594059,18.6666667 5.96039604,18.1122112 5.96039604,17.4653465 C5.96039604,16.8184818 5.40594059,16.2640264 4.75907591,16.2640264 Z" id="Shape"></path>
            <path d="M9.28712871,25.5973597 C8.87128713,25.1353135 8.08580858,25.1353135 7.62376238,25.5973597 L5.08250825,28.1386139 C4.62046205,28.6006601 4.62046205,29.339934 5.08250825,29.8019802 C5.54455446,30.2640264 6.28382838,30.2640264 6.74587459,29.8019802 L9.28712871,27.2607261 C9.74917492,26.7986799 9.74917492,26.0594059 9.28712871,25.5973597 Z" id="Shape"></path>
            <path d="M9.28712871,7.669967 L6.74587459,5.12871287 C6.28382838,4.66666667 5.54455446,4.66666667 5.08250825,5.12871287 C4.62046205,5.59075908 4.62046205,6.330033 5.08250825,6.79207921 L7.62376238,9.33333333 C8.08580858,9.79537954 8.82508251,9.79537954 9.28712871,9.33333333 C9.74917492,8.87128713 9.74917492,8.1320132 9.28712871,7.669967 Z" id="Shape"></path>
        </g>
    </g>
</svg>